<svg width="36" height="36" viewBox="0 0 36 36" fill="none" xmlns="http://www.w3.org/2000/svg">
<path d="M15.2173 11.9707C14.524 11.9707 13.8591 12.2461 13.3689 12.7363C12.8787 13.2266 12.6033 13.8915 12.6033 14.5848C12.6033 15.2781 12.8787 15.943 13.3689 16.4332C13.8591 16.9234 14.524 17.1988 15.2173 17.1988C15.9106 17.1988 16.5755 16.9234 17.0658 16.4332C17.556 15.943 17.8314 15.2781 17.8314 14.5848C17.8314 13.8915 17.556 13.2266 17.0658 12.7363C16.5755 12.2461 15.9106 11.9707 15.2173 11.9707ZM13.697 14.5848C13.697 14.1816 13.8572 13.7949 14.1423 13.5097C14.4274 13.2246 14.8141 13.0645 15.2173 13.0645C15.6205 13.0645 16.0072 13.2246 16.2924 13.5097C16.5775 13.7949 16.7376 14.1816 16.7376 14.5848C16.7376 14.988 16.5775 15.3747 16.2924 15.6598C16.0072 15.9449 15.6205 16.1051 15.2173 16.1051C14.8141 16.1051 14.4274 15.9449 14.1423 15.6598C13.8572 15.3747 13.697 14.988 13.697 14.5848Z" fill="#708935"/>
<path d="M24.8533 4.68403L24.0789 2.82575C23.9781 2.57609 23.7983 2.36633 23.567 2.22857C23.4408 2.15161 23.2983 2.10521 23.151 2.09306C23.0036 2.0809 22.8554 2.10334 22.7183 2.15857C21.7777 2.54357 21.2166 3.4645 20.9027 4.4981C20.4831 4.23188 20.0401 4.00453 19.5792 3.81888C19.2789 3.69836 18.9432 3.70077 18.6447 3.8256C18.3461 3.95043 18.1086 4.18765 17.9834 4.48607L17.9823 4.48825C17.7978 4.93551 17.6528 5.39812 17.5492 5.87075C16.6075 5.37419 15.575 5.12919 14.6475 5.51528C14.5111 5.57325 14.3899 5.66179 14.2932 5.77406C14.1965 5.88633 14.1268 6.01933 14.0897 6.16278C14.0186 6.41982 14.0405 6.69982 14.14 6.95357L15.1758 9.45278C15.0347 9.62725 14.9153 9.81824 14.8203 10.0215C14.7744 10.12 14.7328 10.2129 14.6967 10.2972C14.6541 10.2468 14.6092 10.1933 14.5589 10.1364C14.3099 9.84844 14.0036 9.61556 13.6595 9.45259C13.3155 9.28962 12.9412 9.20013 12.5607 9.18984C12.1801 9.17955 11.8016 9.24868 11.4493 9.39282C11.0969 9.53696 10.7785 9.75294 10.5142 10.027L10.512 10.0292C10.2528 10.3008 10.052 10.6226 9.92193 10.9748C9.79187 11.327 9.73535 11.7021 9.75585 12.077C9.77634 12.4519 9.87343 12.8186 10.0411 13.1545C10.2088 13.4904 10.4435 13.7884 10.7308 14.0301L10.9517 14.2117C10.8609 14.2554 10.7603 14.3036 10.6509 14.3593C10.5188 14.426 10.3922 14.5032 10.2725 14.5901L7.43204 13.4122L7.42219 13.4089C7.1708 13.3076 6.89342 13.2904 6.63141 13.3597C6.48796 13.3968 6.35496 13.4664 6.24268 13.5631C6.13041 13.6599 6.04188 13.7811 5.98391 13.9175C5.59563 14.8493 5.84501 15.8895 6.34813 16.8356C5.85048 16.9592 5.36704 17.1167 5.09797 17.2042L4.99954 17.237C4.73266 17.3212 4.43079 17.4962 4.26563 17.8167C4.08626 18.1623 4.13001 18.5451 4.30719 18.8918L4.41001 19.0953C4.55766 19.3906 4.75673 19.7843 4.98423 20.1672C3.94407 20.4789 3.01547 21.04 2.62719 21.9872C2.57196 22.1243 2.54953 22.2725 2.56168 22.4198C2.57384 22.5672 2.62024 22.7097 2.69719 22.8359C2.82844 23.0623 3.04282 23.245 3.29438 23.3478L5.39547 24.2228L5.32985 24.2862L3.8861 25.719C3.80954 25.7956 3.82047 25.905 3.89704 25.9815C5.27297 27.2175 7.39922 27.2175 8.75001 25.94C8.66251 26.2112 8.61547 26.4978 8.6111 26.7909V28.8253C8.6111 28.9237 8.6986 29.0112 8.79704 29.0003C10.6783 28.9018 12.1986 27.3487 12.1986 25.4347L12.1767 25.3658L24.617 27.6156C25.0068 27.6863 25.3701 27.8615 25.6681 28.1225C25.9661 28.3835 26.1877 28.7205 26.3091 29.0976L27.4466 32.6206C27.5778 33.2659 28.3872 33.43 28.9122 32.905L33.4184 28.3987C33.9434 27.8737 33.7794 27.0643 33.1341 26.9331L29.5214 25.8481C29.1448 25.7349 28.8056 25.5223 28.5396 25.2326C28.2735 24.943 28.0906 24.5869 28.0098 24.202L25.4942 12.1959C25.5413 12.1193 25.5872 12.0406 25.6298 11.9597C27.5286 11.9422 29.0642 10.4284 29.1627 8.5581C29.1736 8.45966 29.0861 8.37216 28.9877 8.37216H26.9533C26.6713 8.3761 26.3913 8.42067 26.122 8.5045L26.1198 8.49247C27.3798 7.14169 27.3755 5.02857 26.1439 3.6581C26.1102 3.62239 26.0639 3.60126 26.0149 3.59921C25.9658 3.59717 25.9179 3.61438 25.8814 3.64716L24.8533 4.68403ZM15.1561 6.54997C15.1495 6.53272 15.1451 6.51472 15.143 6.49638C15.7117 6.30169 16.4949 6.47778 17.4213 7.05857C18.363 7.64919 19.3233 8.58325 20.0977 9.60044C20.3438 9.922 20.7736 10.1583 21.2209 9.9745C21.6694 9.79075 21.8083 9.32044 21.7536 8.92122C21.5786 7.65138 21.5961 6.30716 21.8444 5.21669C22.0872 4.15357 22.5138 3.47435 23.0497 3.20747C23.0566 3.21779 23.0625 3.22878 23.0672 3.24028L24.4344 6.52372L24.4355 6.52482C24.7931 7.39872 25.1245 8.71997 25.1158 9.48122V9.49107C25.1256 11.369 24.1205 12.5875 22.5673 13.2372C22.202 13.3859 21.8356 13.4887 21.4736 13.5423C21.037 13.1235 20.4747 12.8602 19.8734 12.7931C19.7584 12.7824 19.6432 12.774 19.5278 12.7679L19.5639 12.7154C19.7743 12.404 19.9186 12.0528 19.9878 11.6834C20.0569 11.314 20.0496 10.9343 19.9661 10.5679C19.8827 10.2015 19.7249 9.85608 19.5026 9.55308C19.2802 9.25009 18.9981 8.99594 18.6736 8.80638C18.2791 8.57722 17.8334 8.45064 17.3773 8.43822C16.9212 8.4258 16.4692 8.52793 16.0628 8.73528L15.1561 6.54997ZM13.6577 19.2331C13.7069 19.6454 13.8447 20.0228 14.0492 20.3498C14.0195 20.8608 13.9034 21.363 13.7058 21.8351C13.0561 23.3883 11.8377 24.3945 9.95969 24.3847H9.94876C9.1886 24.3945 7.86735 24.062 6.99344 23.7043H6.99235L3.71329 22.3372H3.71001C3.69846 22.3321 3.68746 22.3259 3.67719 22.3186C3.94297 21.7826 4.62219 21.3561 5.68532 21.1133C6.77469 20.865 8.11891 20.8486 9.38876 21.0214C9.81313 21.0815 10.2495 20.8989 10.4202 20.4767C10.5886 20.0589 10.407 19.6258 10.0702 19.3676C9.05298 18.5933 8.11782 17.6318 7.52719 16.6901C6.94641 15.7637 6.77032 14.9795 6.96501 14.4118C6.98358 14.4146 7.00188 14.419 7.01969 14.425L9.50469 15.4564C9.03438 16.2986 9.02344 17.3704 9.58126 18.2564C9.78124 18.5744 10.045 18.8475 10.356 19.0584C10.6669 19.2692 11.0182 19.4133 11.3876 19.4815C11.7571 19.5496 12.1366 19.5404 12.5023 19.4543C12.868 19.3683 13.2119 19.2073 13.5122 18.9815L13.6216 18.8984C13.6325 19.0001 13.6434 19.1128 13.6577 19.2331ZM18.5423 6.50185C18.6299 5.95935 18.7797 5.4245 18.993 4.90825C19.0068 4.87553 19.0327 4.84936 19.0652 4.83512C19.0978 4.82088 19.1345 4.81965 19.168 4.83169L19.1702 4.83278C19.6995 5.04607 20.1972 5.3206 20.6533 5.64763C20.522 6.54778 20.5133 7.52888 20.6019 8.47716C19.9952 7.7402 19.304 7.0772 18.5423 6.50185ZM6.12172 19.9222C5.84829 19.5197 5.6011 19.0264 5.39766 18.6239L5.28063 18.3942C5.26733 18.3691 5.2567 18.3427 5.24891 18.3154C5.27523 18.2991 5.30354 18.2863 5.33313 18.2772L5.43157 18.2443C5.79579 18.1273 6.43344 17.9206 6.97376 17.8167C7.54847 18.5762 8.21034 19.2656 8.94579 19.8708C8.00563 19.7788 7.058 19.7968 6.12172 19.9222ZM18.1267 9.75357C18.9438 10.2283 19.192 11.3133 18.6583 12.1018L18.5533 12.255C18.4199 12.4518 18.3061 12.6203 18.2361 12.745C18.1726 12.8503 18.1288 12.9663 18.107 13.0873C18.0882 13.2029 18.1024 13.3214 18.1481 13.4292C18.1937 13.537 18.269 13.6297 18.3652 13.6965C18.4796 13.7724 18.6112 13.8183 18.748 13.83C18.8355 13.8409 18.9361 13.8431 19.0269 13.8453L19.0892 13.8464C19.2719 13.8508 19.4928 13.8562 19.7706 13.8825C20.638 13.9645 21.42 14.8778 21.2527 15.7998V15.8031C21.212 16.0246 21.1264 16.2354 21.0011 16.4226C20.8758 16.6097 20.7135 16.7692 20.5243 16.8913C20.335 17.0133 20.1228 17.0953 19.9006 17.1322C19.6784 17.1691 19.4511 17.1601 19.2325 17.1058C19.0334 17.0565 18.888 17.0139 18.7622 16.9778C18.7072 16.9617 18.6522 16.9461 18.597 16.9308C18.5147 16.9069 18.4306 16.8897 18.3455 16.8793H18.3422C18.2387 16.8663 18.1336 16.8796 18.0367 16.9181C17.9398 16.9565 17.8541 17.0188 17.7877 17.0992C17.7094 17.198 17.6643 17.3189 17.6586 17.4448C17.656 17.5095 17.6619 17.5742 17.6761 17.6373C17.6936 17.7183 17.7242 17.8047 17.7472 17.867L17.7745 17.9425C17.8216 18.0715 17.8795 18.2279 17.9419 18.4379C18.2109 19.3447 17.6466 20.2973 16.7191 20.504C16.4964 20.5528 16.2659 20.5545 16.0425 20.509C15.8191 20.4635 15.6077 20.3719 15.4218 20.24C15.2358 20.1082 15.0795 19.9389 14.9627 19.7431C14.846 19.5473 14.7714 19.3292 14.7438 19.1029C14.7204 18.9065 14.7018 18.7096 14.688 18.5123L14.6727 18.3286C14.6656 18.2294 14.6525 18.1308 14.6333 18.0333C14.6045 17.8804 14.5297 17.7399 14.4189 17.6308C14.3379 17.556 14.239 17.5034 14.1316 17.4781C14.0243 17.4528 13.9123 17.4556 13.8064 17.4864C13.6935 17.5209 13.5865 17.5725 13.4892 17.6395C13.3345 17.7452 13.1831 17.8557 13.0353 17.9709L12.8538 18.1076C12.6743 18.2424 12.4689 18.3385 12.2504 18.3897C12.0319 18.441 11.8052 18.4463 11.5846 18.4054C11.3639 18.3645 11.1542 18.2782 10.9686 18.152C10.7831 18.0258 10.6257 17.8625 10.5066 17.6723C10.384 17.4801 10.3029 17.2643 10.2687 17.0388C10.2344 16.8134 10.2477 16.5833 10.3076 16.3633C10.3676 16.1432 10.4729 15.9382 10.6167 15.7613C10.7606 15.5844 10.9399 15.4396 11.1431 15.3361C11.3422 15.2354 11.4877 15.1687 11.6156 15.1097C11.6911 15.0747 11.7611 15.0429 11.8322 15.0079C11.912 14.9686 12.0105 14.9193 12.0947 14.8581C12.2421 14.7575 12.3451 14.6039 12.3823 14.4293C12.3987 14.335 12.3947 14.2383 12.3705 14.1457C12.3464 14.053 12.3027 13.9666 12.2423 13.8923C12.1772 13.8117 12.1039 13.738 12.0236 13.6725C11.9526 13.6131 11.8808 13.5548 11.8081 13.4975L11.7677 13.4647C11.6714 13.3881 11.5609 13.2984 11.4352 13.1934C11.2623 13.0479 11.1211 12.8684 11.0202 12.6662C10.9193 12.464 10.8609 12.2432 10.8486 12.0176C10.8363 11.7919 10.8704 11.5661 10.9487 11.3541C11.027 11.1422 11.1479 10.9485 11.3039 10.785C11.4627 10.6207 11.654 10.4913 11.8655 10.4049C12.0771 10.3186 12.3043 10.2773 12.5327 10.2835C12.7611 10.2898 12.9857 10.3436 13.1921 10.4414C13.3986 10.5392 13.5825 10.6789 13.732 10.8517C13.837 10.9742 13.9256 11.0814 14.0033 11.1733L14.023 11.1984C14.0897 11.2793 14.1542 11.3559 14.2089 11.4172C14.2636 11.4806 14.3424 11.5659 14.4353 11.6315C14.5261 11.6961 14.7394 11.8175 15.0074 11.7333C15.1695 11.6793 15.3063 11.5681 15.3924 11.4204C15.4647 11.2859 15.529 11.1471 15.5849 11.0048C15.6439 10.8626 15.7128 10.6964 15.8113 10.4853C15.9071 10.2777 16.0451 10.0925 16.2166 9.94133C16.3881 9.79018 16.5892 9.67649 16.8072 9.60751C17.0251 9.53854 17.255 9.51581 17.4822 9.54077C17.7095 9.56573 17.929 9.63783 18.1267 9.75247V9.75357Z" fill="#708935"/>
</svg>
