<svg width="31" height="33" viewBox="0 0 31 33" fill="none" xmlns="http://www.w3.org/2000/svg">
<path fill-rule="evenodd" clip-rule="evenodd" d="M18.5635 12.0064L17.0328 11.5959C16.8447 11.5532 16.7421 11.4334 16.725 11.3223C16.7079 11.2539 16.7079 11.1855 16.725 11.117V11.1085C16.7421 11.0315 16.7677 10.9546 16.819 10.8862C16.9131 10.7579 17.0756 10.6895 17.2808 10.7237C17.6058 10.775 17.9478 10.5954 18.059 10.2534C18.1445 10.0481 18.2813 9.96262 18.401 9.95406H18.4182C18.4951 9.93696 18.5721 9.95406 18.6405 9.97117C18.7174 9.99682 18.7859 10.0396 18.8372 10.0823C18.9483 10.1678 19.0082 10.3218 18.9654 10.5014L18.5635 12.0064ZM19.085 8.62805C18.8028 8.55108 18.5463 8.51688 18.2641 8.55108L18.2213 8.55963C17.7424 8.61949 17.2978 8.85038 16.9814 9.3207C16.4255 9.35491 15.9723 9.65421 15.6901 10.0476C15.5276 10.2699 15.4079 10.535 15.3566 10.783L15.3395 10.8428C15.2882 11.0908 15.2882 11.3559 15.3395 11.5954C15.4763 12.2025 15.8953 12.7583 16.6735 12.9636H16.6906L18.7344 13.528C18.9653 13.5793 19.1705 13.5451 19.3757 13.4254C19.5468 13.3398 19.6836 13.1774 19.752 12.9807L19.7691 12.955L19.7777 12.9037V12.8781L20.3164 10.8514C20.5302 10.0989 20.2394 9.44042 19.7691 9.01286C19.5639 8.84183 19.333 8.71356 19.085 8.62805ZM28.3803 19.6851L26.0971 28.2108L19.3757 26.4065L19.3501 26.3979L17.6484 25.9532L17.6227 25.9361H17.58L17.5629 25.919C16.4768 25.6283 15.7072 24.9955 15.2283 24.2088C14.8435 23.5845 14.6725 22.8576 14.6725 22.1308C14.6554 21.4125 14.835 20.6771 15.2112 20.0443C15.6901 19.2575 16.4597 18.6162 17.5458 18.3169C17.8365 18.2399 18.1615 18.1972 18.4779 18.1886C18.7772 18.1715 19.1107 18.1972 19.4356 18.2399C19.9914 18.3682 20.5729 18.0518 20.7782 17.5045C21.3939 15.8284 22.6851 15.0075 24.0533 14.8621C24.6519 14.7937 25.2591 14.8621 25.8406 15.0332C26.405 15.2127 26.9437 15.4949 27.3798 15.8797C28.3205 16.7178 28.8164 18.0176 28.3803 19.6851ZM5.83893 30.1262L2.88017 19.0436C2.28157 16.8117 2.95713 15.0331 4.22273 13.9299C4.81277 13.4083 5.52253 13.0149 6.2836 12.7841C7.05322 12.5532 7.87415 12.4591 8.67798 12.5532C10.4994 12.7413 12.2439 13.853 13.0648 16.0849C13.2872 16.6493 13.8686 16.9486 14.4159 16.8289C14.7238 16.7946 14.9974 16.769 15.2882 16.769C14.3903 17.2821 13.6891 18.0175 13.1931 18.8555C12.6116 19.8475 12.3209 20.9934 12.3209 22.1478C12.3294 23.2766 12.6287 24.4224 13.2187 25.4144H13.2273L13.2187 25.423C13.7404 26.2781 14.4672 27.0221 15.4164 27.5693L5.83893 30.1262ZM28.9192 14.1269C28.2266 13.5283 27.4056 13.058 26.5334 12.7929C25.6526 12.5278 24.712 12.4338 23.797 12.5278C22.0268 12.7245 20.3166 13.6053 19.222 15.3669C18.6576 15.0334 18.059 14.811 17.4519 14.6571C16.6309 14.4433 15.7672 14.3664 14.9207 14.4177C13.6209 11.7924 11.312 10.467 8.92617 10.219C7.79739 10.0992 6.66861 10.219 5.59114 10.5525C4.53078 10.8689 3.51316 11.4247 2.70079 12.1601C0.785284 13.8276 -0.266532 16.4272 0.597154 19.6597L3.66709 31.0586C3.79536 31.5973 4.14596 32.0249 4.59063 32.2729C5.00965 32.5123 5.52273 32.6064 6.02726 32.4952L6.12133 32.4867L17.5288 29.4253C17.8794 29.3398 18.2215 29.2201 18.5635 29.0832L18.6234 29.0576C18.8201 28.9721 19.0082 28.8866 19.1963 28.7925L25.9776 30.6054L26.0545 30.6225C26.5334 30.7251 26.9866 30.6396 27.38 30.4173L27.474 30.3488C27.8247 30.1094 28.0983 29.7759 28.2095 29.3569L28.218 29.3056L28.2266 29.2885L30.6466 20.2925C31.3564 17.633 30.4841 15.478 28.9192 14.1269ZM12.5605 5.85743L12.5776 5.84033C12.6289 5.80613 12.6888 5.78047 12.7486 5.77192C12.8085 5.74627 12.9026 5.74627 12.971 5.74627C13.1163 5.76337 13.2874 5.85743 13.3558 6.06267C13.4669 6.38762 13.809 6.57575 14.1511 6.50734C14.3563 6.48168 14.5017 6.55864 14.5957 6.69547C14.6385 6.74677 14.6727 6.82374 14.6898 6.89215L14.7069 6.90925V7.11448C14.6727 7.27696 14.5017 7.36247 14.3563 7.40523L12.8684 7.80714L12.4664 6.29355C12.398 6.11397 12.4493 5.9515 12.5605 5.85743ZM11.6369 8.69655L11.6625 8.75641V8.78206C11.7481 8.97874 11.8849 9.13267 12.0388 9.22673C12.2269 9.3379 12.4664 9.36355 12.6887 9.3208H12.6973L14.741 8.76496C15.5277 8.55973 15.9382 8.00389 16.075 7.38819C16.1263 7.14875 16.1263 6.89221 16.075 6.63567V6.58437C15.9981 6.32783 15.8955 6.06273 15.7415 5.8404C15.4337 5.43849 14.9805 5.14774 14.4332 5.10498C14.1082 4.64321 13.6122 4.39522 13.1163 4.34391C12.8512 4.32681 12.5775 4.34391 12.3295 4.42088C12.0987 4.48929 11.8678 4.61756 11.6796 4.76293L11.6198 4.81424C11.1495 5.2247 10.8844 5.8575 11.0982 6.66133L11.6198 8.66234L11.6369 8.69655ZM17.1694 2.98462C17.1865 2.92476 17.2207 2.85635 17.2635 2.79649C17.3405 2.68533 17.5115 2.60836 17.7253 2.63402C18.0417 2.70243 18.3837 2.52285 18.512 2.18935C18.589 1.98412 18.7172 1.8815 18.8541 1.8815L18.8626 1.8644C18.931 1.8644 19.008 1.8815 19.0849 1.8986C19.1619 1.9157 19.2218 1.95846 19.2816 2.00122C19.3928 2.10383 19.4527 2.2321 19.4013 2.42023L18.9909 3.94237L17.4944 3.54046H17.4773C17.2977 3.48915 17.2036 3.35233 17.1694 3.22406H17.1609C17.1609 3.15565 17.1609 3.07014 17.1694 2.98462ZM17.127 4.89116L19.1708 5.42989V5.43844C19.3931 5.50685 19.624 5.45554 19.8121 5.35293C19.9746 5.25886 20.1371 5.10494 20.1884 4.90826L20.1969 4.89116L20.2055 4.8313L20.2226 4.79709L20.7699 2.78752C20.9665 2.0179 20.7014 1.35945 20.2055 0.940434C20.0002 0.769407 19.7694 0.632585 19.5128 0.555623C19.2563 0.478661 18.9741 0.427353 18.7175 0.478661H18.6833C18.1873 0.529969 17.7427 0.777958 17.4263 1.22263C16.8533 1.28249 16.4172 1.55613 16.1265 1.95804C15.964 2.18038 15.8528 2.43692 15.793 2.70201C15.7417 2.95 15.7417 3.23219 15.7844 3.50584C15.9041 4.12153 16.3403 4.69447 17.127 4.89116Z" fill="#708935"/>
</svg>
