<svg width="35" height="34" viewBox="0 0 35 34" fill="none" xmlns="http://www.w3.org/2000/svg">
<path fill-rule="evenodd" clip-rule="evenodd" d="M19.9045 13.9311L17.4838 6.44204L15.0913 13.8371C14.9505 14.4103 14.4345 14.8237 13.8434 14.8237L5.98097 14.8144L12.3516 19.4374C12.7926 19.7475 12.999 20.3301 12.8114 20.8657L10.3719 28.3548L16.6675 23.7505C17.1179 23.4028 17.7653 23.3652 18.2438 23.7129L24.5957 28.3548L22.1469 20.8657C21.9874 20.3583 22.1469 19.7663 22.6254 19.4374L28.9866 14.8144L21.2274 14.8237C20.6457 14.8707 20.0921 14.5043 19.9045 13.9311ZM18.7127 1.84738L22.0622 12.24L32.974 12.2212C33.687 12.2212 34.25 12.8131 34.25 13.5085C34.25 13.9407 34.0529 14.3166 33.7246 14.5515L24.8863 20.9599L28.2828 31.3525C28.4986 32.0291 28.1327 32.7526 27.4665 32.9781C27.0537 33.1097 26.6315 33.0345 26.2937 32.7808L17.4836 26.3535L8.67354 32.7808C8.09183 33.2036 7.29433 33.0909 6.87212 32.5177C6.60003 32.1324 6.5625 31.6814 6.71262 31.2961L10.0809 20.9599L1.24267 14.5515C0.660964 14.1474 0.538993 13.3393 0.951819 12.7568C1.21453 12.4091 1.5992 12.2212 2.00265 12.2212L12.9144 12.24L16.2545 1.84738C16.4703 1.17083 17.2115 0.804369 17.8683 1.02049C18.2905 1.16144 18.5814 1.46213 18.7127 1.84738Z" fill="#708935"/>
</svg>
