<svg width="36" height="36" viewBox="0 0 36 36" fill="none" xmlns="http://www.w3.org/2000/svg">
<path d="M17.75 12.0332V30.9915M4.625 13.4915C4.625 13.1048 4.77865 12.7338 5.05214 12.4603C5.32563 12.1868 5.69656 12.0332 6.08333 12.0332H29.4167C29.8034 12.0332 30.1744 12.1868 30.4479 12.4603C30.7214 12.7338 30.875 13.1048 30.875 13.4915V16.4082C30.875 16.795 30.7214 17.1659 30.4479 17.4394C30.1744 17.7129 29.8034 17.8665 29.4167 17.8665H6.08333C5.69656 17.8665 5.32563 17.7129 5.05214 17.4394C4.77865 17.1659 4.625 16.795 4.625 16.4082V13.4915Z" stroke="#708935" stroke-width="2" stroke-linecap="round" stroke-linejoin="round"/>
<path d="M27.9583 17.8664V28.0747C27.9583 28.8482 27.651 29.5901 27.104 30.1371C26.557 30.6841 25.8152 30.9914 25.0416 30.9914H10.4583C9.68474 30.9914 8.94288 30.6841 8.3959 30.1371C7.84892 29.5901 7.54163 28.8482 7.54163 28.0747V17.8664M11.1875 12.033C10.2205 12.033 9.29319 11.6489 8.60947 10.9652C7.92574 10.2815 7.54163 9.35413 7.54163 8.38719C7.54163 7.42026 7.92574 6.49293 8.60947 5.8092C9.29319 5.12547 10.2205 4.74136 11.1875 4.74136C12.5943 4.71685 13.9729 5.39945 15.1435 6.70014C16.3142 8.00082 17.2224 9.85924 17.75 12.033C18.2775 9.85924 19.1858 8.00082 20.3564 6.70014C21.527 5.39945 22.9056 4.71685 24.3125 4.74136C25.2794 4.74136 26.2067 5.12547 26.8905 5.8092C27.5742 6.49293 27.9583 7.42026 27.9583 8.38719C27.9583 9.35413 27.5742 10.2815 26.8905 10.9652C26.2067 11.6489 25.2794 12.033 24.3125 12.033" stroke="#708935" stroke-width="2" stroke-linecap="round" stroke-linejoin="round"/>
</svg>
