<svg width="158" height="65" viewBox="0 0 158 65" fill="none" xmlns="http://www.w3.org/2000/svg">
<g clip-path="url(#clip0_143_2892)">
<path d="M6.75004 28.9079C6.65813 28.9534 6.56622 28.9665 6.46774 28.9404C6.37582 28.9144 6.32987 28.8623 6.32987 28.7647C6.46774 28.3936 6.61217 27.9445 6.75004 27.4107C6.88791 26.8835 7.00608 26.4083 7.098 25.9917C7.098 25.5295 7.3803 25.139 7.93834 24.8135C9.14634 24.1691 10.5119 23.5637 12.0285 23.0104C13.5384 22.4571 15.0419 22.021 16.5322 21.6955C19.283 21.1422 22.1454 20.8623 25.126 20.8623C28.8025 20.8623 31.6584 21.2659 33.687 22.073C35.7157 22.8802 36.7267 24.3253 36.7267 26.4018C36.7267 27.4172 36.3853 28.4717 35.7157 29.5523C35.0395 30.6394 34.0941 31.6418 32.8861 32.5661C31.6715 33.4905 30.1943 34.2846 28.448 34.9551C26.7017 35.6255 24.7781 36.0747 22.6838 36.309C22.2636 36.3546 22.1257 36.5433 22.2636 36.8623C23.1499 38.4766 24.371 40.501 25.9335 42.9225C27.4961 45.344 29.249 47.9217 31.2054 50.6491C32.2296 52.0356 33.385 53.3765 34.6652 54.6654C35.9455 55.9608 37.3307 57.0999 38.821 58.0958C40.3113 59.0853 41.9067 59.8859 43.607 60.4848C45.3074 61.0836 47.0669 61.3831 48.8789 61.3831C51.6757 61.3831 54.4462 60.667 57.1904 59.235C57.4727 59.0527 57.6106 59.0983 57.6106 59.3717C57.6106 59.5539 57.5187 59.6711 57.3283 59.7167C55.838 60.5043 54.2755 61.1357 52.6473 61.6239C51.0191 62.1056 49.2728 62.3529 47.4083 62.3529C44.7559 62.3529 42.4253 62.0861 40.4229 61.5588C38.4205 61.025 36.5823 60.2049 34.9016 59.0983C33.2275 57.9917 31.6256 56.5596 30.1156 54.8021C28.599 53.0446 27.0299 50.9225 25.4018 48.4294C24.9356 47.6939 24.3776 46.7761 23.7276 45.6955C23.0777 44.6084 22.4015 43.4888 21.699 42.3367C21.0031 41.1845 20.3334 40.0649 19.7097 38.9778C19.086 37.8908 18.5543 37.0055 18.1406 36.309C18.1406 36.1267 18.2129 36.0291 18.3507 36.0291C20.445 36.0291 22.3686 35.8468 24.115 35.4758C25.8613 35.1048 27.3779 34.5385 28.6581 33.7769C29.9383 33.0153 30.9362 32.0454 31.6649 30.8672C32.3871 29.689 32.7482 28.3155 32.7482 26.7468C32.7482 26.1935 32.6432 25.6011 32.4331 24.9827C32.223 24.3643 31.8488 23.8045 31.317 23.3228C30.7786 22.8346 30.0696 22.4311 29.1833 22.1121C28.297 21.7866 27.1809 21.6239 25.8285 21.6239C25.3624 21.6239 24.9094 21.6825 24.4629 21.7997C24.0231 21.9168 23.6357 22.1577 23.3075 22.5287C22.7954 23.1276 22.0732 24.1365 21.1409 25.5425C20.2087 26.9551 19.1845 28.5824 18.0684 30.4246C16.9524 32.2732 15.7837 34.2325 14.5758 36.3155C13.3612 38.392 12.2123 40.4164 11.1159 42.3757C10.0195 44.3416 9.05442 46.1186 8.21408 47.7069C7.37373 49.3017 6.75004 50.558 6.32987 51.4823C6.28391 51.5735 6.192 51.619 6.04757 51.619C5.81122 51.5735 5.58144 51.5409 5.35166 51.5149C5.11531 51.4888 4.88553 51.4823 4.65574 51.4823H3.8154C3.48714 51.4823 3.13919 51.5279 2.76497 51.619C2.20693 51.9445 1.66858 52.3806 1.1565 52.9339C1.06458 52.9339 0.959541 52.9079 0.841368 52.8623C0.723195 52.8167 0.710064 52.7451 0.808542 52.654C5.09561 46.4636 8.70647 40.9437 11.6411 36.1007C14.5757 31.2577 17.1099 26.8184 19.2567 22.8021C19.3946 22.4311 19.434 22.2032 19.3618 22.1121C19.2896 22.021 19.1386 21.9754 18.9088 21.9754C17.5104 22.0665 16.112 22.3464 14.7202 22.8086C13.3218 23.2708 12.0153 23.8241 10.8073 24.4685C10.0129 24.9307 9.27108 25.5556 8.5686 26.3367C7.87269 27.1243 7.26213 27.977 6.75004 28.9014V28.9079Z" fill="white"/>
<path d="M47.4083 62.6068C44.7494 62.6068 42.3728 62.3334 40.3573 61.7996C38.3352 61.2658 36.4576 60.4261 34.7638 59.3065C33.0765 58.1934 31.4483 56.7288 29.9252 54.9648C28.4152 53.2073 26.8199 51.0592 25.1917 48.5661C24.7256 47.824 24.161 46.9127 23.511 45.8191C22.8545 44.7321 22.1849 43.6125 21.4889 42.4603C20.7865 41.3082 20.1234 40.182 19.4931 39.095C18.8629 38.0144 18.3442 37.1226 17.924 36.4326L17.8912 36.3741V36.309C17.8912 35.9249 18.1276 35.7882 18.3442 35.7882C20.4188 35.7882 22.3424 35.606 24.0559 35.2414C25.7629 34.8834 27.2663 34.3171 28.5203 33.575C29.7611 32.8395 30.7393 31.8891 31.4418 30.75C32.1377 29.6173 32.4922 28.2699 32.4922 26.7532C32.4922 26.226 32.3872 25.6597 32.1902 25.0608C31.9932 24.4815 31.6453 23.9542 31.1398 23.4986C30.6343 23.0364 29.9383 22.6458 29.0914 22.3334C28.238 22.0209 27.135 21.8647 25.822 21.8647C25.3821 21.8647 24.9422 21.9168 24.5221 22.0274C24.1216 22.1316 23.7868 22.3464 23.4913 22.6784C22.9924 23.2642 22.2702 24.2732 21.3445 25.6662C20.4319 27.0462 19.3946 28.6865 18.2786 30.5417C17.1428 32.4164 15.9676 34.4017 14.7859 36.4261C13.5844 38.4831 12.4224 40.5205 11.3326 42.4863C10.2428 44.4392 9.27112 46.2292 8.43734 47.8175C7.61012 49.3993 6.9733 50.6621 6.55969 51.5799C6.50717 51.6906 6.3693 51.8598 6.05417 51.8598C5.77844 51.8077 5.55522 51.7752 5.332 51.7557C5.10879 51.7361 4.879 51.7231 4.65579 51.7231H3.81544C3.52001 51.7231 3.19831 51.7622 2.86349 51.8468C2.33827 52.1527 1.83275 52.5759 1.34693 53.0966L1.27471 53.1747H1.16311C1.03837 53.1747 0.907063 53.1487 0.756063 53.0901C0.578803 53.0185 0.526282 52.9078 0.506586 52.8232C0.493456 52.7386 0.500021 52.6149 0.63789 52.4782C4.87244 46.3529 8.51612 40.7874 11.4311 35.9705C14.346 31.1601 16.8999 26.6881 19.0401 22.6784C19.1517 22.3855 19.1517 22.2618 19.1517 22.2292C19.1452 22.2292 19.073 22.2097 18.9088 22.2097C17.5564 22.3008 16.1646 22.5742 14.7924 23.0299C13.4138 23.4855 12.1138 24.0388 10.919 24.6767C10.164 25.1194 9.42868 25.7313 8.75247 26.4929C8.06969 27.261 7.46569 28.1072 6.96674 29.012L6.92734 29.0771L6.86169 29.1096C6.71069 29.1812 6.55969 29.2007 6.40869 29.1617C6.20517 29.1096 6.08043 28.9599 6.08043 28.7516L6.09356 28.667C6.23143 28.309 6.3693 27.8598 6.50717 27.3391C6.64504 26.8118 6.76321 26.3431 6.85513 25.9265C6.85513 25.4253 7.17026 24.9632 7.80708 24.5921C9.02821 23.9412 10.4135 23.3293 11.93 22.776C13.4466 22.2227 14.9763 21.7736 16.4666 21.4481C19.2239 20.8948 22.1258 20.6084 25.1129 20.6084C28.8026 20.6084 31.7175 21.025 33.7658 21.8387C35.8864 22.6849 36.9565 24.2146 36.9565 26.3952C36.9565 27.4497 36.602 28.5563 35.9061 29.6759C35.2168 30.7825 34.2451 31.8175 33.0174 32.7549C31.7897 33.6922 30.2797 34.5059 28.5203 35.1763C26.7608 35.8533 24.8044 36.309 22.6969 36.5433C22.4868 36.5693 22.4475 36.6214 22.4475 36.6214C22.4475 36.6214 22.4409 36.667 22.4803 36.7581C23.3469 38.3334 24.5746 40.3708 26.1305 42.7858C27.6799 45.1942 29.4525 47.7915 31.3958 50.4994C32.4069 51.8663 33.5623 53.2073 34.8294 54.4896C36.0965 55.7654 37.4818 56.9111 38.9458 57.8875C40.4098 58.8639 42.0052 59.658 43.6793 60.2504C45.3468 60.8362 47.0932 61.1357 48.8724 61.1357C51.61 61.1357 54.374 60.4196 57.0723 59.0136C57.1379 58.968 57.4005 58.7923 57.6369 58.916C57.7813 58.9941 57.8535 59.1438 57.8535 59.3651C57.8535 59.6645 57.6828 59.8728 57.3874 59.951C55.9431 60.7191 54.3543 61.37 52.7196 61.8517C51.0717 62.3399 49.286 62.5872 47.4083 62.5872V62.6068ZM18.4033 36.2829C18.8103 36.9599 19.3224 37.8256 19.9199 38.8606C20.5501 39.9477 21.2132 41.0608 21.9091 42.213C22.605 43.3651 23.2812 44.4847 23.9312 45.5653C24.5877 46.6588 25.1458 47.5636 25.6053 48.3057C27.2204 50.7728 28.8026 52.9143 30.2994 54.6523C31.7897 56.3838 33.3851 57.8094 35.0329 58.9029C36.6808 59.99 38.5125 60.8102 40.4755 61.3309C42.4516 61.8517 44.7822 62.1186 47.4018 62.1186C49.2334 62.1186 50.9667 61.8777 52.5686 61.4025C54.1705 60.9274 55.733 60.2894 57.2036 59.5148C57.3086 59.4823 57.3415 59.4628 57.348 59.4302C57.3415 59.4302 57.3283 59.4432 57.3152 59.4497C54.5184 60.9078 51.6823 61.6369 48.8658 61.6369C47.0275 61.6369 45.2287 61.3309 43.5086 60.7191C41.7951 60.1137 40.1669 59.3 38.67 58.3041C37.1732 57.3082 35.7617 56.143 34.4749 54.8411C33.1881 53.5457 32.0195 52.1853 30.9953 50.7988C29.0455 48.0844 27.2663 45.4807 25.7104 43.0657C24.1478 40.6442 22.9136 38.6003 22.0338 36.9925C21.9288 36.7516 21.9288 36.5563 22.0207 36.4001C22.1258 36.2178 22.3293 36.1137 22.6444 36.0811C24.7124 35.8533 26.6295 35.4042 28.3496 34.7467C30.0631 34.0893 31.5337 33.2951 32.722 32.3903C33.9037 31.492 34.836 30.4961 35.4925 29.4416C36.1424 28.4001 36.4707 27.3846 36.4707 26.4213C36.4707 24.4359 35.5253 23.095 33.5886 22.3204C31.5993 21.5262 28.75 21.1291 25.1195 21.1291C22.1652 21.1291 19.2962 21.409 16.5782 21.9558C15.1076 22.2748 13.6041 22.7174 12.1073 23.2642C10.6104 23.811 9.24486 24.4164 8.04999 25.0543C7.5773 25.3277 7.34095 25.6466 7.34095 26.0177C7.24247 26.4863 7.1243 26.968 6.98643 27.5018C6.88139 27.8989 6.77634 28.2569 6.6713 28.5693C7.16369 27.7231 7.73486 26.929 8.38482 26.1999C9.10042 25.3993 9.86855 24.7549 10.6826 24.2797C11.9103 23.6222 13.2365 23.0624 14.6414 22.5938C16.053 22.1251 17.4842 21.8452 18.8957 21.754C19.2371 21.741 19.4406 21.8322 19.5653 21.9884C19.6966 22.1641 19.6769 22.431 19.4931 22.9127C17.3397 26.955 14.7727 31.4335 11.8578 36.2504C8.97568 41.0152 5.37796 46.5156 1.1828 52.5889C1.65549 52.1137 2.14788 51.7231 2.6534 51.4302L2.71906 51.4042C3.1064 51.3065 3.48062 51.261 3.82857 51.261H4.66892C4.91183 51.261 5.14818 51.274 5.39109 51.3C5.634 51.3261 5.87035 51.3586 6.11326 51.4042L6.13296 51.3911C6.54656 50.4798 7.18339 49.204 8.01717 47.6157C8.85095 46.0274 9.82916 44.2309 10.919 42.278C12.0154 40.3122 13.1774 38.2748 14.3788 36.2113C15.5606 34.1804 16.7357 32.2016 17.8715 30.3204C18.9942 28.4652 20.0315 26.8183 20.9506 25.4253C21.8829 24.0128 22.6182 22.9908 23.1368 22.3855C23.4979 21.9754 23.9246 21.7085 24.417 21.5783C24.8831 21.4611 25.3624 21.396 25.8417 21.396C27.2138 21.396 28.3693 21.5653 29.2818 21.8973C30.1944 22.2292 30.9363 22.6523 31.4943 23.1601C32.0589 23.6743 32.4594 24.2667 32.676 24.9241C32.8927 25.5685 33.0043 26.1934 33.0043 26.7662C33.0043 28.3741 32.6301 29.8061 31.8816 31.0169C31.1398 32.2211 30.1025 33.23 28.796 34.0112C27.4961 34.7858 25.9401 35.3651 24.1807 35.7361C22.4475 36.1007 20.5107 36.2894 18.423 36.2959L18.4033 36.2829Z" fill="white"/>
<path d="M59.2322 37.5785C58.1621 38.8739 56.9869 40.1757 55.7067 41.4906C54.4265 42.8055 53.1332 43.9967 51.8267 45.0578C50.5202 46.1188 49.2269 46.9715 47.9466 47.6224C46.6664 48.2669 45.4913 48.5923 44.4211 48.5923C43.4889 48.5923 42.8389 48.358 42.4647 47.9023C42.0905 47.4402 41.9067 46.8608 41.9067 46.1709C41.9067 45.5264 42.1036 44.6607 42.4975 43.5736C42.8915 42.4866 43.4889 41.3214 44.2767 40.0781C43.6727 40.8657 42.9702 41.6924 42.1824 42.5712C41.388 43.4499 40.5739 44.2441 39.7402 44.9601C38.8998 45.6761 38.066 46.275 37.2257 46.7632C36.3853 47.2449 35.6435 47.4923 34.987 47.4923C34.0087 47.4923 33.5164 47.0041 33.5164 46.0342C33.5164 44.9731 33.9365 43.6322 34.7769 42.0179C35.6172 40.4036 36.7464 38.8413 38.1645 37.3442C39.5826 35.847 41.2042 34.5517 43.0228 33.4646C44.8413 32.3775 46.7255 31.8372 48.682 31.8372C48.9117 31.3751 49.1218 31.0496 49.3122 30.8674C49.496 30.6851 49.6864 30.5419 49.8702 30.4508L51.8267 29.8975L51.9645 29.9691C51.7282 30.2034 51.5115 30.4898 51.3015 30.8348C51.0914 31.1798 50.8682 31.5378 50.6384 31.9089C50.8682 31.9089 51.2227 31.9349 51.6888 31.9805C52.1549 32.026 52.5029 32.0716 52.7392 32.1172C52.969 32.2083 53.0872 32.3255 53.0872 32.4621C53.0872 32.5988 53.015 32.6704 52.8771 32.6704C52.5948 32.5793 52.1812 32.5077 51.6166 32.4621C51.0586 32.4166 50.6384 32.3905 50.3561 32.3905C48.2158 36.1334 46.6402 39.1017 45.6423 41.2888C44.6378 43.4825 44.1388 45.1098 44.1388 46.1709C44.1388 46.5875 44.2439 46.9324 44.454 47.2123C44.6641 47.4923 45.0908 47.6289 45.7473 47.6289C46.4892 47.6289 47.3755 47.3621 48.3996 46.8348C49.4238 46.301 50.5202 45.5655 51.6822 44.6151C52.8443 43.6713 54.0457 42.5712 55.28 41.3279C56.5142 40.0781 57.6894 38.7632 58.8055 37.3767C58.8974 37.24 58.9893 37.201 59.0878 37.2726C59.1797 37.3442 59.2256 37.4483 59.2256 37.585L59.2322 37.5785ZM48.334 32.3124C46.7518 32.3124 45.2352 32.8657 43.7909 33.9723C42.3465 35.0789 41.0663 36.3873 39.9502 37.8844C38.8342 39.3881 37.9347 40.8722 37.2585 42.3499C36.5823 43.8275 36.2475 44.9145 36.2475 45.6045C36.2475 45.9756 36.3853 46.1578 36.6676 46.1578C36.95 46.1578 37.3767 45.9756 37.961 45.6045C38.5453 45.2335 39.2084 44.7388 39.9502 44.1139C40.6921 43.489 41.4537 42.7599 42.2218 41.9333C42.9899 41.1001 43.699 40.2018 44.3555 39.2319C45.0974 38.1253 45.8195 36.9471 46.522 35.6973C47.2179 34.4475 47.8482 33.3409 48.4062 32.371L48.334 32.2994V32.3124Z" fill="white"/>
<path d="M44.4212 48.8396C43.4167 48.8396 42.6945 48.5728 42.2744 48.0585C41.8673 47.5573 41.6638 46.9194 41.6638 46.1708C41.6638 45.5003 41.8673 44.5955 42.2744 43.489C42.4188 43.0919 42.5895 42.6883 42.7865 42.2717C42.6552 42.4214 42.5173 42.5776 42.3794 42.7339C41.5785 43.6191 40.7512 44.4328 39.9109 45.1488C39.0706 45.8714 38.2105 46.4833 37.357 46.978C36.4839 47.4857 35.6895 47.7396 35.0001 47.7396C33.8775 47.7396 33.2866 47.1537 33.2866 46.0406C33.2866 44.9275 33.7199 43.554 34.5734 41.9137C35.4203 40.2864 36.5692 38.6916 38.0004 37.1814C39.4316 35.6712 41.0795 34.3563 42.9112 33.2628C44.7101 32.1887 46.6074 31.6289 48.5441 31.6029C48.7608 31.1863 48.9643 30.8868 49.1481 30.7046C49.3516 30.5028 49.5617 30.3466 49.7718 30.2424L51.8596 29.6436L52.3913 29.9039L52.1484 30.1448C51.9318 30.3596 51.7217 30.633 51.5182 30.965C51.3737 31.1993 51.2293 31.4401 51.0783 31.6875C51.2556 31.7005 51.4722 31.72 51.7151 31.7396C52.1812 31.7851 52.5423 31.8307 52.7852 31.8828C53.2448 32.065 53.3302 32.2994 53.3302 32.4686C53.3302 32.742 53.1529 32.9178 52.8772 32.9178L52.7984 32.9047C52.5358 32.8201 52.1353 32.755 51.5969 32.7095C51.1242 32.6704 50.7632 32.6509 50.5006 32.6444C48.4063 36.3026 46.8503 39.2449 45.8655 41.3995C44.8807 43.5475 44.3884 45.1619 44.3884 46.1838C44.3884 46.5484 44.4737 46.8413 44.651 47.0756C44.8085 47.2839 45.1893 47.3946 45.7474 47.3946C46.4498 47.3946 47.3033 47.1342 48.2881 46.6265C49.2926 46.1057 50.3824 45.3702 51.5313 44.4393C52.6868 43.502 53.8882 42.4019 55.1093 41.1651C56.337 39.9283 57.5187 38.6069 58.6217 37.2335C58.7005 37.1098 58.8121 37.0317 58.9368 37.0056C59.009 36.9926 59.1207 36.9991 59.2388 37.0838C59.3504 37.1619 59.4752 37.3181 59.4752 37.5915V37.6761L59.4226 37.7412C58.3525 39.03 57.1577 40.3514 55.884 41.6728C54.6038 42.9877 53.2908 44.1985 51.9843 45.2595C50.6712 46.327 49.3516 47.1993 48.0649 47.8502C46.7518 48.5142 45.5307 48.8462 44.4278 48.8462L44.4212 48.8396ZM44.1455 39.9674L44.4868 40.2017C43.7121 41.4255 43.1147 42.5842 42.7274 43.6517C42.3466 44.7062 42.1496 45.5524 42.1496 46.1643C42.1496 46.7762 42.3138 47.323 42.6552 47.7461C42.9768 48.1431 43.5677 48.3449 44.4212 48.3449C45.4454 48.3449 46.5943 48.026 47.8351 47.4011C48.0583 47.2839 48.2881 47.1667 48.5179 47.0366C47.4609 47.5833 46.5286 47.8632 45.7474 47.8632C44.9661 47.8632 44.5197 47.694 44.2571 47.349C44.0141 47.03 43.896 46.633 43.896 46.1643C43.896 45.0577 44.3949 43.4239 45.4191 41.1781C46.4236 38.9845 48.0123 35.9837 50.146 32.2538L50.2183 32.1366H50.1986L50.4349 31.7656C50.6647 31.3946 50.8879 31.0431 51.098 30.6981C51.1899 30.5484 51.2884 30.4051 51.3803 30.2685L49.9425 30.6785C49.8243 30.7436 49.6536 30.8673 49.4895 31.03C49.3254 31.1928 49.1284 31.4987 48.9052 31.9348L48.8396 32.0715H48.6886C48.6098 32.0715 48.5244 32.0715 48.4456 32.0715L48.7148 32.3384L48.6229 32.5012C48.0649 33.4711 47.4346 34.5776 46.7387 35.8209C46.0428 37.0642 45.3075 38.2619 44.5656 39.3685C44.4343 39.5703 44.2964 39.7656 44.1586 39.9609L44.1455 39.9674ZM46.614 32.2864C45.4322 32.5337 44.2702 32.9959 43.1475 33.6663C41.3552 34.7339 39.7402 36.0292 38.3418 37.5003C36.9434 38.978 35.8142 40.5337 34.9936 42.122C34.1795 43.6973 33.7593 45.0121 33.7593 46.0276C33.7593 46.8673 34.1335 47.2383 34.9804 47.2383C35.5844 47.2383 36.2935 47.004 37.0944 46.5418C37.9151 46.0667 38.7554 45.4678 39.5695 44.7648C39.7205 44.6411 39.8649 44.5109 40.0159 44.3742C39.2938 44.9731 38.6438 45.4548 38.0858 45.8128C37.4555 46.2099 36.9894 46.4051 36.6611 46.4051C36.4642 46.4051 35.998 46.327 35.998 45.6045C35.998 44.882 36.3394 43.7689 37.0353 42.2457C37.7116 40.7615 38.6307 39.2449 39.7533 37.7347C40.8825 36.2245 42.189 34.8901 43.6399 33.7705C44.5919 33.0349 45.5898 32.5402 46.614 32.2733V32.2864ZM48.0123 32.5663C46.6008 32.6379 45.2353 33.1781 43.9419 34.1676C42.5238 35.2546 41.2436 36.5565 40.1472 38.0341C39.0443 39.5182 38.1449 41.0024 37.4818 42.4605C36.8253 43.899 36.4904 44.9601 36.4904 45.6175C36.4904 45.93 36.5889 45.93 36.6611 45.93C36.8187 45.93 37.1535 45.8388 37.8232 45.4157C38.3878 45.0577 39.0509 44.563 39.7862 43.9446C40.5215 43.3262 41.283 42.5972 42.0315 41.7835C42.7865 40.9633 43.4955 40.065 44.1389 39.1082C44.8808 38.0081 45.6029 36.8234 46.2923 35.5931C46.9225 34.4735 47.4937 33.4645 48.0058 32.5728L48.0123 32.5663ZM52.2206 32.2733C52.4045 32.2994 52.5686 32.3254 52.7065 32.3645C52.6868 32.358 52.6671 32.3449 52.6408 32.3384C52.5423 32.3189 52.3979 32.2994 52.2206 32.2798V32.2733ZM50.5596 32.1431C50.8288 32.1497 51.1833 32.1757 51.6363 32.2082C51.6692 32.2082 51.702 32.2082 51.7348 32.2148C51.7086 32.2148 51.6889 32.2147 51.6626 32.2082C51.203 32.1627 50.8551 32.1431 50.6384 32.1431H50.5596Z" fill="white"/>
<path d="M82.9129 41.1133C82.2629 41.8554 81.4817 42.682 80.5757 43.6064C79.6697 44.5307 78.698 45.4095 77.6739 46.2362C76.6497 47.0694 75.5861 47.7593 74.4963 48.3126C73.3999 48.8659 72.3429 49.1458 71.3187 49.1458C70.3865 49.1458 69.7365 48.9636 69.3623 48.5925C68.9881 48.2215 68.8043 47.6487 68.8043 46.8611C68.8043 46.3533 69.0735 45.5201 69.6052 44.368C70.137 43.2158 70.7344 42.0116 71.3844 40.7683C72.0344 39.5185 72.6318 38.3338 73.1636 37.2012C73.6953 36.0685 73.9645 35.2744 73.9645 34.8122C73.9645 34.5323 73.8463 34.3956 73.6166 34.3956C73.0126 34.7211 72.3232 35.1898 71.5551 35.8147C70.787 36.4396 70.032 37.1165 69.2835 37.8586C68.5351 38.6007 67.8523 39.3102 67.2221 40.0067C66.5918 40.7032 66.1125 41.276 65.7909 41.7382C65.4626 42.2004 65.1409 42.7536 64.8126 43.3981C64.4844 44.049 64.1692 44.6674 63.8672 45.2663C63.5653 45.8651 63.2633 46.3729 62.9613 46.7894C62.6593 47.206 62.3901 47.4143 62.1603 47.4143C61.9305 47.4143 61.7204 47.2972 61.53 47.0694C61.3462 46.8415 61.2477 46.6072 61.2477 46.3794C61.2477 46.2427 61.32 46.0018 61.4578 45.6503C61.5957 45.2988 61.8517 44.8757 62.226 44.368C62.8299 43.5348 63.3814 42.6625 63.8672 41.7382C64.3596 40.8139 64.7732 39.9611 65.1278 39.1735C65.4757 38.3859 65.7449 37.7219 65.9287 37.1621C66.1125 36.6088 66.211 36.2833 66.211 36.1922C66.211 35.8212 66.1191 35.6389 65.9287 35.6389C65.6464 35.6389 65.1737 35.9253 64.4975 36.5047C63.8213 37.084 63.086 37.787 62.2982 38.6202C61.5038 39.4534 60.7291 40.3322 59.961 41.25C59.1928 42.1743 58.5494 43.0075 58.0374 43.7431C57.3874 44.713 56.8228 45.5657 56.3632 46.3078C55.8971 47.0498 55.5492 47.4143 55.3128 47.4143C54.9386 47.4143 54.7219 47.2516 54.6497 46.9261C54.5775 46.6007 54.5447 46.2817 54.5447 45.9563C54.5447 45.5852 54.6366 45.2858 54.827 45.058C56.0875 43.0726 57.3152 41.0417 58.5297 38.9587C59.7377 36.8822 60.9523 34.8253 62.1603 32.7943C62.3901 32.3777 62.6527 32.1694 62.9284 32.1694C63.1582 32.1694 63.3683 32.2996 63.5587 32.547C63.7425 32.8008 63.841 33.0417 63.841 33.276C63.5127 34.2004 62.9547 35.333 62.1669 36.6674C61.3725 38.0083 60.6766 39.2321 60.0726 40.3387C61.9371 38.2166 63.493 36.6088 64.7536 35.5218C66.0141 34.4347 67.0382 33.8944 67.8261 33.8944C68.3381 33.8944 68.5942 34.2394 68.5942 34.9359C68.5942 35.3981 68.3841 36.1011 67.9639 37.0515C67.5438 38.0018 67.1695 38.7699 66.8478 39.3753C66.7559 39.5576 66.7428 39.6422 66.815 39.6161C66.8872 39.5966 66.966 39.538 67.0579 39.4404C67.616 38.796 68.2594 38.1125 68.9815 37.3964C69.7037 36.6804 70.4718 36.0034 71.2859 35.3525C72.1 34.7081 72.9141 34.1027 73.7282 33.5494C74.5423 32.9961 75.2973 32.56 75.9997 32.2345C76.6956 32.2345 77.0502 32.56 77.0502 33.2044C77.0502 33.3411 77.0239 33.4843 76.9779 33.621C76.932 33.7577 76.8598 33.9205 76.7679 34.1092C76.5315 34.617 76.1048 35.4502 75.4745 36.6023C74.8442 37.7545 74.2074 38.9912 73.5509 40.3061C72.901 41.621 72.3298 42.8903 71.8374 44.1141C71.345 45.3379 71.1021 46.2752 71.1021 46.9196C71.1021 47.844 71.542 48.3061 72.4283 48.3061C73.2686 48.3061 74.1483 48.0262 75.0806 47.4729C76.0129 46.9196 76.9451 46.2492 77.8774 45.4615C78.8096 44.6739 79.6697 43.8602 80.4641 43.001C81.2584 42.1483 81.9347 41.3997 82.4927 40.7488C82.6765 40.4689 82.8669 40.3582 83.0507 40.4038C83.2346 40.4493 83.1886 40.6837 82.9129 41.0938V41.1133Z" fill="white"/>
<path d="M71.3187 49.3931C70.3077 49.3931 69.6118 49.1913 69.185 48.7682C68.7649 48.3516 68.5548 47.7137 68.5548 46.8674C68.5548 46.3207 68.8239 45.4679 69.382 44.2702C69.9138 43.1181 70.5178 41.9008 71.1677 40.6575C71.8242 39.4077 72.4217 38.21 72.9469 37.0969C73.4655 36.0033 73.7281 35.2352 73.7281 34.8121C73.7281 34.6949 73.7084 34.6559 73.6756 34.6429C73.0979 34.9553 72.4414 35.4175 71.7192 36.0033C70.9576 36.6217 70.1961 37.3052 69.4673 38.0277C68.7255 38.7633 68.0361 39.4793 67.4124 40.1693C66.7887 40.8528 66.316 41.4256 66.0009 41.8748C65.6792 42.3239 65.3575 42.8772 65.0424 43.5086L64.097 45.3768C63.7884 45.9822 63.4799 46.5094 63.1713 46.9325C62.4623 47.8959 61.8189 47.8113 61.3462 47.2189C61.123 46.9456 61.0114 46.6591 61.0114 46.3727C61.0114 46.197 61.0836 45.9366 61.2411 45.5526C61.3921 45.1815 61.6482 44.7454 62.0355 44.2181C62.633 43.398 63.1779 42.5192 63.6571 41.6144C64.143 40.7031 64.5631 39.8438 64.9111 39.0627C65.2525 38.2946 65.5216 37.6242 65.7055 37.0774C65.9418 36.3809 65.9681 36.2181 65.9746 36.1791C65.9746 35.9252 65.9221 35.8666 65.9221 35.8601C65.8433 35.8731 65.5216 35.9513 64.6682 36.6738C63.9985 37.2466 63.2632 37.9496 62.482 38.7698C61.7007 39.5835 60.9194 40.4687 60.1513 41.3866C59.3898 42.2979 58.7529 43.1311 58.2408 43.8666C57.5975 44.8235 57.0329 45.6827 56.5733 46.4183C56.0349 47.2775 55.6542 47.6421 55.3128 47.6421C54.8269 47.6421 54.5053 47.4012 54.4068 46.9651C54.3346 46.6266 54.2952 46.2816 54.2952 45.9431C54.2952 45.52 54.4068 45.162 54.63 44.8886C55.8445 42.9618 57.0919 40.9179 58.3131 38.8219C59.5211 36.7454 60.7356 34.6884 61.9436 32.6575C62.4491 31.7527 63.237 31.6941 63.749 32.3971C63.9657 32.6966 64.0773 32.9895 64.0773 33.2694L64.0642 33.3475C63.7359 34.2783 63.1647 35.437 62.3703 36.7844C62.0158 37.3833 61.6744 37.9692 61.3593 38.529C62.5936 37.1945 63.6703 36.127 64.5828 35.3394C65.9024 34.2067 66.9594 33.6534 67.8195 33.6534C68.2002 33.6534 68.8371 33.8227 68.8371 34.9358C68.8371 35.437 68.627 36.1596 68.1871 37.149C67.9639 37.6437 67.7538 38.0993 67.5569 38.5094C67.9376 38.0993 68.3512 37.6697 68.7977 37.2271C69.5264 36.5111 70.3077 35.8146 71.1218 35.1636C71.9424 34.5127 72.7696 33.9073 73.5837 33.354C74.4043 32.7942 75.179 32.3451 75.8881 32.0196L75.9931 31.9936C76.8269 31.9936 77.2865 32.4232 77.2865 33.2043C77.2865 33.367 77.2602 33.5298 77.2077 33.6925C77.1552 33.8422 77.0829 34.018 76.9845 34.2133C76.7481 34.7275 76.3083 35.5672 75.6911 36.7128C75.0609 37.878 74.4109 39.1213 73.7741 40.4102C73.1307 41.7055 72.5595 42.9814 72.0671 44.2051C71.5944 45.3963 71.3515 46.3076 71.3515 46.9195C71.3515 47.7072 71.6864 48.0587 72.4348 48.0587C73.2226 48.0587 74.0761 47.7918 74.9624 47.2645C75.8815 46.7177 76.8072 46.0538 77.7263 45.2792C78.6455 44.5045 79.5055 43.6844 80.2868 42.8381C81.0811 41.9789 81.7639 41.2238 82.3088 40.5924C82.6043 40.1563 82.9128 40.1172 83.1164 40.1693C83.2477 40.2019 83.3461 40.2865 83.3855 40.3971C83.4643 40.5924 83.3855 40.8398 83.1164 41.2303L83.0967 41.2564C82.4401 42.005 81.6458 42.8447 80.7463 43.7625C79.8403 44.6868 78.8555 45.5786 77.8248 46.4118C76.7941 47.2515 75.7043 47.961 74.6013 48.5208C73.4787 49.0871 72.3691 49.3801 71.3121 49.3801L71.3187 49.3931ZM73.564 34.1482H73.6231C73.9973 34.1482 74.2205 34.3955 74.2205 34.8056C74.2205 35.3068 73.9513 36.1205 73.3933 37.2987C72.8681 38.4118 72.2641 39.616 71.6076 40.8788C70.9576 42.1156 70.3602 43.3264 69.8284 44.472C69.3098 45.5916 69.0472 46.3923 69.0472 46.8609C69.0472 47.577 69.2113 48.0977 69.533 48.4167C69.8547 48.7356 70.4587 48.8984 71.3121 48.8984C72.1656 48.8984 73.1307 48.677 74.0827 48.2344C73.5115 48.4492 72.96 48.5534 72.4282 48.5534C71.4172 48.5534 70.8526 47.974 70.8526 46.926C70.8526 46.2425 71.0955 45.2922 71.601 44.0294C72.0934 42.7926 72.6711 41.5102 73.3211 40.2019C73.9645 38.9065 74.6144 37.6567 75.2447 36.485C75.8618 35.3524 76.2951 34.5127 76.5315 34.005C76.6234 33.8227 76.689 33.673 76.7284 33.5428C76.7678 33.4256 76.7875 33.315 76.7875 33.2043C76.7875 32.7096 76.5643 32.4948 76.0391 32.4818C75.3694 32.7942 74.6341 33.2238 73.8529 33.7576C73.0519 34.3044 72.2313 34.9032 71.4237 35.5477C70.6228 36.1856 69.8481 36.8691 69.1391 37.5721C68.4235 38.2816 67.7801 38.9651 67.2286 39.603C67.0907 39.7397 66.9791 39.8178 66.8741 39.8504L66.7231 39.9024L66.5786 39.7788C66.4408 39.6225 66.5458 39.4077 66.618 39.271C66.9463 38.6722 67.3139 37.8975 67.7275 36.9602C68.1346 36.0489 68.3381 35.3719 68.3381 34.9488C68.3381 34.1547 67.9836 34.1547 67.8129 34.1547C67.0842 34.1547 66.1059 34.6819 64.8979 35.7234C63.6506 36.7975 62.088 38.4118 60.2432 40.5143L58.7792 42.1872L59.8428 40.2409C60.4467 39.1343 61.1558 37.8975 61.9436 36.5631C62.7117 35.2613 63.2632 34.1482 63.5849 33.2564C63.5718 33.0936 63.4996 32.9049 63.3551 32.7096C63.2173 32.5208 63.0728 32.4297 62.9284 32.4297C62.6986 32.4297 62.5017 32.7031 62.3769 32.9244C61.1624 34.9618 59.9544 37.0188 58.7398 39.0953C57.5187 41.1913 56.2713 43.2482 55.0305 45.201C54.8598 45.4093 54.7876 45.6567 54.7876 45.9692C54.7876 46.2816 54.8204 46.581 54.886 46.887C54.9189 47.0367 54.9911 47.1799 55.3062 47.1799C55.3128 47.1799 55.5426 47.1473 56.1466 46.184C56.6127 45.4419 57.1773 44.5761 57.8272 43.6128C58.3459 42.8707 58.9958 42.0245 59.764 41.1002C60.5387 40.1693 61.3265 39.2775 62.1143 38.4574C62.9087 37.6242 63.6506 36.9081 64.3333 36.3288C65.305 35.5021 65.7055 35.4045 65.9287 35.4045C66.1256 35.4045 66.4539 35.5086 66.4539 36.2051C66.4539 36.2897 66.4342 36.446 66.1585 37.2531C65.9681 37.8194 65.6923 38.5029 65.3444 39.284C64.9964 40.0717 64.5697 40.9374 64.0773 41.8617C63.5849 42.7861 63.0269 43.6844 62.4163 44.5241C62.0552 45.0123 61.8123 45.4289 61.681 45.7543C61.5103 46.184 61.4906 46.3402 61.4906 46.3923C61.4906 46.568 61.5628 46.7438 61.7138 46.9325C61.8517 47.1018 61.9961 47.1864 62.1471 47.1864C62.2128 47.1864 62.4097 47.1343 62.7511 46.6657C63.0466 46.2621 63.342 45.7609 63.6374 45.175L64.5828 43.3068C64.9111 42.6559 65.2459 42.0831 65.5807 41.6144C65.909 41.1522 66.3948 40.5599 67.0316 39.8569C67.6553 39.1669 68.3578 38.4378 69.0997 37.7023C69.8415 36.9667 70.6097 36.2702 71.3909 35.6453C72.1656 35.0139 72.8747 34.5257 73.4918 34.2002L73.5443 34.1742L73.564 34.1482ZM82.8734 40.7031C82.8209 40.7421 82.7618 40.8137 82.7028 40.9049C82.1578 41.5428 81.5013 42.2718 80.7398 43.092C81.4882 42.3239 82.1513 41.6079 82.7224 40.97C82.8012 40.8528 82.8472 40.7682 82.8734 40.7096V40.7031Z" fill="white"/>
<path d="M126.722 1.00265C126.722 1.28255 126.585 1.55594 126.302 1.83584C126.026 2.11575 125.836 2.50631 125.744 3.01404C125.652 3.33951 125.488 3.50224 125.252 3.50224C125.114 3.50224 124.97 3.46969 124.832 3.39809C124.694 3.32649 124.517 3.24838 124.306 3.15724C124.096 3.06611 123.84 2.98149 123.538 2.9164C123.236 2.8448 122.803 2.81225 122.245 2.81225C121.451 2.81225 120.663 2.9164 119.868 3.1247C119.074 3.333 118.352 3.64545 117.702 4.06205C116.395 4.89524 114.99 6.07344 113.474 7.59663C111.957 9.11982 110.572 10.7797 109.318 12.5828C106.2 17.0157 103.462 21.1621 101.112 25.0157C98.7613 28.8692 96.7917 32.3257 95.2095 35.3721C93.6273 38.4184 92.439 41.0157 91.6446 43.1637C90.8502 45.3118 90.4563 46.8936 90.4563 47.9091C90.4563 48.6967 90.6336 49.3411 90.9815 49.8489C91.3295 50.3566 91.9006 50.6105 92.695 50.6105C93.9555 50.6105 95.1504 50.2199 96.2927 49.4323C97.4351 48.6446 98.5183 47.6682 99.5425 46.49C100.567 45.3118 101.499 44.01 102.339 42.5779C103.18 41.1459 103.902 39.8049 104.506 38.5616C104.598 38.3794 104.749 38.3078 104.959 38.3533C105.169 38.3989 105.156 38.5877 104.926 38.9066C104.086 40.5665 103.193 42.1548 102.234 43.652C101.282 45.1556 100.278 46.4705 99.2274 47.6031C98.177 48.7358 97.0871 49.621 95.9448 50.272C94.8024 50.9164 93.6732 51.2419 92.5572 51.2419C91.2966 51.2419 90.3644 50.9099 89.7604 50.2394C89.1564 49.569 88.8544 48.7032 88.8544 47.6422C88.8544 46.5812 89.0776 45.3444 89.5175 44.0751C89.9573 42.8057 90.6467 41.25 91.5789 39.4013C90.2725 40.9701 89.1367 42.285 88.1585 43.3525C87.1803 44.4135 86.3202 45.2467 85.5718 45.8456C84.8299 46.4445 84.1865 46.8741 83.6482 47.1279C83.1098 47.3818 82.6371 47.512 82.217 47.512C81.567 47.512 81.1206 47.3363 80.8908 46.9913C80.6545 46.6463 80.5428 46.1971 80.5428 45.6373C80.5428 45.2207 80.661 44.6804 80.8908 44.01C81.1206 43.3395 81.4488 42.6821 81.869 42.0376C83.5891 39.2646 85.5127 37.0059 87.6333 35.2484C89.7538 33.4908 92.3733 32.3387 95.4918 31.7854C97.7305 27.9058 99.8708 24.4168 101.919 21.3249C103.967 18.2329 106.206 15.2061 108.629 12.2508C110.631 9.75773 112.62 7.56408 114.603 5.66986C116.579 3.77563 118.621 2.34357 120.715 1.37368C122.297 0.638123 123.67 0.26709 124.838 0.26709C125.396 0.26709 125.849 0.338693 126.204 0.475389C126.552 0.612086 126.729 0.800857 126.729 1.02868L126.722 1.00265ZM94.9337 32.8009C93.1611 32.8464 91.8022 33.1784 90.8436 33.8033C89.8851 34.4282 89.0382 35.2028 88.2963 36.1206C86.5237 38.2948 85.2698 40.1499 84.5214 41.6991C83.7729 43.2484 83.4053 44.3875 83.4053 45.1296C83.4053 45.3639 83.4972 45.5201 83.6876 45.6178C83.8714 45.7089 84.0158 45.7545 84.1077 45.7545C84.436 45.7545 85.0269 45.4095 85.8869 44.713C86.747 44.023 87.7055 43.0856 88.7493 41.9074C89.7998 40.7293 90.883 39.3558 91.9991 37.787C93.1152 36.2183 94.0934 34.5519 94.9337 32.8009Z" fill="white"/>
<path d="M92.5571 51.4697C91.2309 51.4697 90.233 51.1051 89.5765 50.3826C88.9331 49.6731 88.6049 48.7422 88.6049 47.6226C88.6049 46.503 88.8346 45.2662 89.2811 43.9774C89.5765 43.1312 89.9836 42.1483 90.4956 41.0482C89.7013 41.979 88.9791 42.7992 88.3357 43.4957C87.3575 44.5567 86.4777 45.4094 85.7227 46.0148C84.9677 46.6267 84.3047 47.0693 83.7532 47.3297C83.182 47.5966 82.6699 47.7333 82.2169 47.7333C81.4816 47.7333 80.963 47.525 80.6872 47.1084C80.4246 46.7243 80.2933 46.2231 80.2933 45.6242C80.2933 45.1751 80.4115 44.6153 80.6544 43.9188C80.8908 43.2353 81.2322 42.5518 81.6589 41.8944C83.3855 39.1214 85.342 36.8171 87.4691 35.0531C89.5831 33.302 92.2289 32.1238 95.3276 31.5575C97.5401 27.717 99.6869 24.228 101.709 21.1816C103.757 18.0962 106.016 15.0368 108.432 12.088C110.428 9.60147 112.443 7.38178 114.426 5.48755C116.415 3.58682 118.496 2.12222 120.604 1.14581C122.212 0.397236 123.637 0.0131836 124.832 0.0131836C125.416 0.0131836 125.908 0.0912959 126.283 0.234502C126.841 0.45582 126.959 0.781288 126.959 1.01562C126.959 1.36062 126.795 1.69911 126.466 2.01807C126.223 2.25891 126.059 2.61042 125.974 3.06607C125.81 3.6389 125.488 3.74955 125.245 3.74955C125.068 3.74955 124.891 3.70399 124.713 3.61937C124.576 3.55427 124.405 3.47616 124.201 3.37852C124.004 3.2939 123.761 3.21579 123.479 3.15069C123.197 3.0856 122.777 3.05305 122.245 3.05305C121.477 3.05305 120.696 3.1572 119.934 3.35899C119.172 3.56078 118.463 3.86672 117.84 4.26379C116.553 5.08397 115.148 6.26217 113.658 7.76583C112.161 9.26949 110.776 10.9359 109.528 12.7194C106.423 17.1328 103.665 21.3118 101.328 25.1393C98.9844 28.9798 97.0018 32.4623 95.4327 35.4827C93.8636 38.503 92.6687 41.1133 91.8809 43.2483C91.0996 45.3574 90.7057 46.9261 90.7057 47.909C90.7057 48.6381 90.8699 49.2435 91.185 49.7121C91.487 50.1548 91.9794 50.3696 92.695 50.3696C93.8964 50.3696 95.0584 49.9855 96.1548 49.2369C97.2775 48.4688 98.3542 47.4924 99.3587 46.3338C100.37 45.1686 101.302 43.8667 102.129 42.4542C102.956 41.0417 103.679 39.7007 104.289 38.4509C104.434 38.1645 104.703 38.0408 105.018 38.1124C105.228 38.158 105.307 38.2882 105.333 38.3663C105.425 38.6007 105.274 38.8545 105.129 39.0498C104.309 40.6771 103.403 42.285 102.451 43.7821C101.492 45.2858 100.475 46.6267 99.4177 47.7658C98.3607 48.9115 97.2315 49.8228 96.0761 50.4802C94.9009 51.1442 93.7191 51.4827 92.5637 51.4827L92.5571 51.4697ZM92.7738 37.5592L91.8021 39.4924C90.883 41.3216 90.1936 42.8838 89.7538 44.1401C89.3205 45.3769 89.1038 46.5486 89.1038 47.6291C89.1038 48.6251 89.3861 49.4452 89.9507 50.0636C90.5022 50.6755 91.3819 50.988 92.5637 50.988C93.6338 50.988 94.7302 50.6755 95.8331 50.0506C96.9492 49.4192 98.0325 48.5339 99.0567 47.4273C99.4177 47.0368 99.7788 46.6137 100.133 46.1775C100.002 46.3338 99.8707 46.49 99.7394 46.6462C98.7087 47.8309 97.5992 48.8399 96.4437 49.6275C95.262 50.4412 94.008 50.8513 92.7081 50.8513C91.8349 50.8513 91.1916 50.5583 90.7911 49.9855C90.4169 49.4387 90.2265 48.7357 90.2265 47.909C90.2265 46.8675 90.6335 45.2402 91.4279 43.0791C92.2223 40.931 93.4237 38.2947 95.0059 35.2614C96.5816 32.228 98.5708 28.739 100.915 24.8919C103.258 21.0514 106.022 16.8659 109.134 12.4461C110.395 10.643 111.806 8.95053 113.316 7.42734C114.833 5.89764 116.271 4.69992 117.584 3.86021C118.253 3.4306 119.008 3.10513 119.822 2.89683C120.63 2.68202 121.451 2.57787 122.258 2.57787C122.842 2.57787 123.282 2.61693 123.604 2.68853C123.919 2.76013 124.188 2.84475 124.418 2.94239C124.635 3.04003 124.812 3.11815 124.95 3.18975C125.055 3.24182 125.153 3.26786 125.258 3.26786C125.304 3.26786 125.422 3.26786 125.508 2.96192C125.6 2.43466 125.816 1.99203 126.132 1.67958C126.361 1.45175 126.479 1.23043 126.479 1.02213C126.479 0.872419 126.276 0.76176 126.112 0.696666C125.79 0.572988 125.363 0.507895 124.838 0.507895C123.716 0.507895 122.363 0.872419 120.82 1.59496C118.759 2.55183 116.724 3.97738 114.774 5.84557C112.811 7.72677 110.808 9.93344 108.819 12.4005C106.416 15.3362 104.164 18.3826 102.123 21.455C100.094 24.5209 97.934 28.036 95.7018 31.9025L95.6428 32.0002L95.5311 32.0197C92.4652 32.5665 89.8588 33.7121 87.7842 35.4306C85.6965 37.1621 83.7729 39.4208 82.0725 42.1613C81.6655 42.7927 81.3438 43.4371 81.114 44.088C80.8908 44.726 80.7792 45.2467 80.7792 45.6373C80.7792 46.1385 80.8842 46.5486 81.0877 46.8545C81.2715 47.1279 81.6523 47.2646 82.2104 47.2646C82.5912 47.2646 83.0376 47.1474 83.5365 46.9066C84.0486 46.6657 84.6789 46.2426 85.4076 45.6568C86.1429 45.0644 87.003 44.2312 87.968 43.1898C88.9331 42.1417 90.082 40.8138 91.3819 39.2516L92.7672 37.5852L92.7738 37.5592ZM104.834 38.5746C104.775 38.5746 104.749 38.6072 104.722 38.6592C104.217 39.7007 103.626 40.8138 102.963 41.979C103.567 40.9505 104.151 39.883 104.703 38.7894C104.775 38.6918 104.814 38.6202 104.834 38.5746ZM84.1011 46.0018C83.9633 46.0018 83.7991 45.9497 83.5694 45.8391C83.379 45.7479 83.1558 45.5461 83.1558 45.136C83.1558 44.3549 83.53 43.1963 84.2981 41.6015C85.0465 40.0457 86.3267 38.158 88.0993 35.9774C88.8543 35.04 89.7341 34.2394 90.7057 33.608C91.6905 32.9636 93.1152 32.612 94.9206 32.5665L95.3211 32.5535L95.1504 32.9115C94.31 34.669 93.3121 36.3614 92.196 37.9367C91.0799 39.5055 89.977 40.8985 88.9331 42.0767C87.8827 43.2548 86.911 44.2117 86.0379 44.9082C84.8167 45.8911 84.3506 46.0018 84.1011 46.0018ZM94.5332 33.0612C93.0101 33.1458 91.8153 33.4648 90.9815 34.0116C90.0492 34.6169 89.2154 35.3785 88.4867 36.2833C86.7338 38.4314 85.4733 40.2931 84.7445 41.8098C84.0158 43.3134 83.6481 44.433 83.6481 45.136C83.6481 45.3053 83.7138 45.3639 83.7926 45.4029C84.0092 45.5136 84.088 45.5136 84.1011 45.5136C84.2193 45.5136 84.6198 45.416 85.7293 44.5307C86.5762 43.8472 87.5282 42.9164 88.5655 41.7512C89.6028 40.586 90.6926 39.206 91.7955 37.6503C92.8197 36.2117 93.7388 34.669 94.5332 33.0612Z" fill="white"/>
<path d="M126.86 37.5785C125.79 38.8739 124.615 40.1757 123.335 41.4906C122.055 42.8055 120.761 43.9967 119.455 45.0578C118.148 46.1188 116.855 46.9715 115.575 47.6224C114.294 48.2669 113.119 48.5923 112.049 48.5923C111.117 48.5923 110.467 48.358 110.093 47.9023C109.719 47.4402 109.535 46.8608 109.535 46.1709C109.535 45.5264 109.732 44.6607 110.126 43.5736C110.519 42.4866 111.117 41.3214 111.905 40.0781C111.301 40.8657 110.598 41.6924 109.81 42.5712C109.016 43.4499 108.202 44.2441 107.368 44.9601C106.528 45.6761 105.694 46.275 104.854 46.7632C104.013 47.2449 103.272 47.4923 102.615 47.4923C101.637 47.4923 101.144 47.0041 101.144 46.0342C101.144 44.9731 101.565 43.6322 102.405 42.0179C103.245 40.4036 104.374 38.8413 105.793 37.3442C107.211 35.847 108.832 34.5517 110.651 33.4646C112.469 32.3775 114.354 31.8372 116.31 31.8372C116.54 31.3751 116.75 31.0496 116.94 30.8674C117.124 30.6851 117.314 30.5419 117.498 30.4508L119.455 29.8975L119.593 29.9691C119.356 30.2034 119.14 30.4898 118.93 30.8348C118.719 31.1798 118.496 31.5378 118.266 31.9089C118.496 31.9089 118.851 31.9349 119.317 31.9805C119.783 32.026 120.131 32.0716 120.367 32.1172C120.597 32.2083 120.715 32.3255 120.715 32.4621C120.715 32.5988 120.643 32.6704 120.505 32.6704C120.223 32.5793 119.809 32.5077 119.245 32.4621C118.687 32.4166 118.266 32.3905 117.984 32.3905C115.844 36.1334 114.268 39.1017 113.27 41.2888C112.266 43.4825 111.767 45.1098 111.767 46.1709C111.767 46.5875 111.872 46.9324 112.082 47.2123C112.292 47.4923 112.719 47.6289 113.375 47.6289C114.117 47.6289 115.004 47.3621 116.028 46.8348C117.052 46.301 118.148 45.5655 119.31 44.6151C120.472 43.6713 121.674 42.5712 122.908 41.3279C124.142 40.0781 125.317 38.7632 126.434 37.3767C126.525 37.24 126.617 37.201 126.716 37.2726C126.808 37.3442 126.854 37.4483 126.854 37.585L126.86 37.5785ZM115.962 32.3124C114.38 32.3124 112.863 32.8657 111.419 33.9723C109.975 35.0789 108.694 36.3873 107.578 37.8844C106.462 39.3881 105.563 40.8722 104.887 42.3499C104.21 43.8275 103.876 44.9145 103.876 45.6045C103.876 45.9756 104.013 46.1578 104.296 46.1578C104.578 46.1578 105.005 45.9756 105.589 45.6045C106.173 45.2335 106.836 44.7388 107.578 44.1139C108.32 43.489 109.082 42.7599 109.85 41.9333C110.618 41.1001 111.327 40.2018 111.984 39.2319C112.725 38.1253 113.448 36.9471 114.15 35.6973C114.846 34.4475 115.476 33.3409 116.034 32.371L115.962 32.2994V32.3124Z" fill="white"/>
<path d="M112.049 48.8396C111.045 48.8396 110.322 48.5728 109.902 48.0585C109.495 47.5573 109.292 46.9194 109.292 46.1708C109.292 45.5003 109.495 44.5955 109.902 43.489C110.047 43.0919 110.217 42.6883 110.414 42.2717C110.283 42.4214 110.145 42.5776 110.007 42.7339C109.206 43.6191 108.379 44.4328 107.539 45.1488C106.698 45.8714 105.838 46.4833 104.985 46.978C104.112 47.4857 103.317 47.7396 102.628 47.7396C101.505 47.7396 100.915 47.1537 100.915 46.0406C100.915 44.9275 101.348 43.554 102.201 41.9137C103.048 40.2864 104.197 38.6916 105.628 37.1814C107.06 35.6712 108.707 34.3563 110.539 33.2628C112.338 32.1887 114.235 31.6289 116.172 31.6029C116.389 31.1863 116.592 30.8868 116.776 30.7046C116.98 30.5028 117.19 30.3466 117.4 30.2424L119.487 29.6436L120.019 29.9039L119.776 30.1448C119.56 30.3596 119.35 30.633 119.146 30.965C119.002 31.1993 118.857 31.4401 118.706 31.6875C118.883 31.7005 119.1 31.72 119.343 31.7396C119.809 31.7851 120.17 31.8307 120.413 31.8828C120.873 32.065 120.958 32.2994 120.958 32.4686C120.958 32.742 120.781 32.9178 120.505 32.9178L120.426 32.9047C120.164 32.8201 119.763 32.755 119.225 32.7095C118.752 32.6704 118.391 32.6509 118.128 32.6444C116.034 36.3026 114.478 39.2449 113.493 41.3995C112.509 43.5475 112.016 45.1619 112.016 46.1838C112.016 46.5484 112.102 46.8413 112.279 47.0756C112.436 47.2839 112.817 47.3946 113.375 47.3946C114.078 47.3946 114.931 47.1342 115.916 46.6265C116.92 46.1057 118.01 45.3702 119.159 44.4393C120.315 43.502 121.516 42.4019 122.737 41.1651C123.965 39.9283 125.147 38.6069 126.25 37.2335C126.328 37.1098 126.44 37.0317 126.565 37.0056C126.637 36.9926 126.749 36.9991 126.867 37.0838C126.978 37.1619 127.103 37.3181 127.103 37.5915V37.6761L127.051 37.7412C125.98 39.03 124.786 40.3514 123.512 41.6728C122.232 42.9877 120.919 44.1985 119.612 45.2595C118.299 46.327 116.98 47.1993 115.693 47.8502C114.38 48.5142 113.159 48.8462 112.056 48.8462L112.049 48.8396ZM111.773 39.9674L112.115 40.2017C111.34 41.4255 110.743 42.5842 110.355 43.6517C109.975 44.7062 109.778 45.5524 109.778 46.1643C109.778 46.7762 109.942 47.323 110.283 47.7461C110.605 48.1431 111.196 48.3449 112.049 48.3449C113.073 48.3449 114.222 48.026 115.463 47.4011C115.686 47.2839 115.916 47.1667 116.146 47.0366C115.089 47.5833 114.157 47.8632 113.375 47.8632C112.594 47.8632 112.148 47.694 111.885 47.349C111.642 47.03 111.524 46.633 111.524 46.1643C111.524 45.0577 112.023 43.4239 113.047 41.1781C114.051 38.9845 115.64 35.9837 117.774 32.2538L117.846 32.1366H117.826L118.063 31.7656C118.293 31.3946 118.516 31.0431 118.726 30.6981C118.818 30.5484 118.916 30.4051 119.008 30.2685L117.57 30.6785C117.452 30.7436 117.282 30.8673 117.117 31.03C116.953 31.1928 116.756 31.4987 116.533 31.9348L116.467 32.0715H116.316C116.238 32.0715 116.152 32.0715 116.074 32.0715L116.343 32.3384L116.251 32.5012C115.693 33.4711 115.063 34.5776 114.367 35.8209C113.671 37.0642 112.935 38.2619 112.194 39.3685C112.062 39.5703 111.924 39.7656 111.787 39.9609L111.773 39.9674ZM114.242 32.2864C113.06 32.5337 111.898 32.9959 110.775 33.6663C108.983 34.7339 107.368 36.0292 105.97 37.5003C104.571 38.978 103.442 40.5337 102.622 42.122C101.807 43.6973 101.387 45.0121 101.387 46.0276C101.387 46.8673 101.761 47.2383 102.608 47.2383C103.212 47.2383 103.921 47.004 104.722 46.5418C105.543 46.0667 106.383 45.4678 107.197 44.7648C107.348 44.6411 107.493 44.5109 107.644 44.3742C106.922 44.9731 106.272 45.4548 105.714 45.8128C105.083 46.2099 104.617 46.4051 104.289 46.4051C104.092 46.4051 103.626 46.327 103.626 45.6045C103.626 44.882 103.967 43.7689 104.663 42.2457C105.339 40.7615 106.259 39.2449 107.381 37.7347C108.51 36.2245 109.817 34.8901 111.268 33.7705C112.22 33.0349 113.218 32.5402 114.242 32.2733V32.2864ZM115.64 32.5663C114.229 32.6379 112.863 33.1781 111.57 34.1676C110.152 35.2546 108.872 36.5565 107.775 38.0341C106.672 39.5182 105.773 41.0024 105.11 42.4605C104.453 43.899 104.118 44.9601 104.118 45.6175C104.118 45.93 104.217 45.93 104.289 45.93C104.447 45.93 104.781 45.8388 105.451 45.4157C106.016 45.0577 106.679 44.563 107.414 43.9446C108.149 43.3262 108.911 42.5972 109.659 41.7835C110.414 40.9633 111.123 40.065 111.767 39.1082C112.509 38.0081 113.231 36.8234 113.92 35.5931C114.55 34.4735 115.122 33.4645 115.634 32.5728L115.64 32.5663ZM119.849 32.2733C120.032 32.2994 120.197 32.3254 120.334 32.3645C120.315 32.358 120.295 32.3449 120.269 32.3384C120.17 32.3189 120.026 32.2994 119.849 32.2798V32.2733ZM118.188 32.1431C118.457 32.1497 118.811 32.1757 119.264 32.2082C119.297 32.2082 119.33 32.2082 119.363 32.2148C119.336 32.2148 119.317 32.2147 119.291 32.2082C118.831 32.1627 118.483 32.1431 118.266 32.1431H118.188Z" fill="white"/>
<path d="M157.25 1.90719C157.25 2.55161 156.994 3.50198 156.482 4.74527C155.97 5.99506 155.235 7.43363 154.283 9.07399C153.324 10.7143 152.162 12.4654 150.79 14.3401C149.418 16.2082 147.856 18.0699 146.109 19.9186C144.363 21.7672 142.439 23.5313 140.345 25.2172C138.251 26.9031 136.012 28.3938 133.635 29.6826C133.215 30.4247 132.631 31.4141 131.889 32.6639C131.141 33.9137 130.412 35.2286 129.69 36.6151C128.968 38.0016 128.337 39.362 127.806 40.703C127.267 42.0439 127.005 43.1765 127.005 44.0943C127.005 45.572 127.681 46.314 129.033 46.314C130.195 46.314 131.41 45.9886 132.664 45.3441C133.924 44.6997 135.119 43.9121 136.262 42.9877C137.404 42.0634 138.474 41.0805 139.479 40.0455C140.476 39.004 141.33 38.0732 142.026 37.24C142.354 36.9145 142.538 36.8364 142.584 36.9991C142.63 37.1619 142.558 37.3376 142.374 37.5199C141.533 38.5353 140.542 39.6224 139.406 40.7746C138.264 41.9267 137.056 42.9943 135.776 43.9576C134.496 44.9275 133.156 45.7347 131.758 46.3791C130.359 47.0235 128.961 47.349 127.563 47.349C126.348 47.349 125.475 47.0626 124.943 46.4833C124.405 45.9039 124.142 45.2009 124.142 44.3677C124.142 43.5345 124.503 42.3498 125.225 40.8006C125.948 39.2514 126.795 37.624 127.773 35.9186C128.751 34.2131 129.729 32.5923 130.707 31.0691C131.686 29.5459 132.408 28.3938 132.874 27.6061C133.668 26.2652 134.489 24.8722 135.356 23.4141C136.216 21.956 137.069 20.537 137.903 19.157C138.743 17.7705 139.544 16.4426 140.312 15.1733C141.08 13.9039 141.789 12.7843 142.446 11.8144C143.24 10.6167 144.054 9.48408 144.888 8.42305C145.729 7.36203 146.799 6.301 148.105 5.23998C149.878 3.76236 151.506 2.62973 152.996 1.8486C154.487 1.06097 155.484 0.67041 156.003 0.67041C156.377 0.67041 156.679 0.77456 156.909 0.982859C157.139 1.19116 157.257 1.50361 157.257 1.92021L157.25 1.90719ZM154.106 3.71028C154.106 2.97472 153.804 2.60369 153.2 2.60369C152.963 2.60369 152.707 2.67529 152.432 2.81199C152.149 2.94869 151.788 3.24161 151.348 3.67773C150.909 4.11386 150.37 4.72574 149.74 5.51337C149.11 6.301 148.309 7.31646 147.33 8.55975C146.956 9.06748 146.431 9.80955 145.761 10.7794C145.085 11.7493 144.225 13.0317 143.175 14.6265C142.124 16.2213 140.87 18.1806 139.4 20.5174C137.936 22.8478 136.196 25.6078 134.194 28.7973C136.99 27.2286 139.61 25.3213 142.052 23.0821C144.494 20.8429 146.602 18.5451 148.374 16.1887C150.147 13.8323 151.539 11.5475 152.563 9.32786C153.587 7.10816 154.099 5.23998 154.099 3.71679L154.106 3.71028Z" fill="white"/>
<path d="M127.556 47.5901C126.276 47.5901 125.337 47.2712 124.753 46.6463C124.175 46.0279 123.886 45.2598 123.886 44.368C123.886 43.4762 124.247 42.2915 124.989 40.6967C125.705 39.1605 126.565 37.5071 127.55 35.7952C128.534 34.0767 129.526 32.4429 130.491 30.9327C131.462 29.4225 132.185 28.2639 132.651 27.4762C133.445 26.1353 134.266 24.7423 135.132 23.2842C135.992 21.8261 136.846 20.4071 137.686 19.0206L140.096 15.0368C140.864 13.761 141.586 12.6284 142.229 11.665C143.017 10.4673 143.844 9.32163 144.685 8.25409C145.532 7.18656 146.621 6.0995 147.935 5.03196C149.707 3.55434 151.368 2.40218 152.865 1.60804C154.408 0.79437 155.425 0.403809 155.983 0.403809C156.417 0.403809 156.778 0.527486 157.054 0.781351C157.342 1.03522 157.487 1.41276 157.487 1.90096C157.487 2.58444 157.231 3.54132 156.699 4.83017C156.18 6.07997 155.439 7.55108 154.48 9.19144C153.528 10.8318 152.346 12.6089 150.974 14.477C149.596 16.3517 148.013 18.2329 146.274 20.0751C144.527 21.9237 142.577 23.7138 140.483 25.3932C138.402 27.0661 136.157 28.5698 133.8 29.8521C133.379 30.5877 132.808 31.5576 132.086 32.7748C131.344 34.0116 130.609 35.3395 129.893 36.713C129.178 38.0865 128.548 39.4534 128.016 40.7814C127.497 42.0832 127.228 43.1963 127.228 44.0881C127.228 45.4355 127.793 46.0604 129.007 46.0604C130.13 46.0604 131.311 45.7415 132.526 45.1166C133.76 44.4787 134.962 43.6975 136.084 42.7862C137.207 41.8749 138.284 40.892 139.275 39.8635C140.273 38.8285 141.126 37.8912 141.816 37.071C142.157 36.7325 142.361 36.6219 142.558 36.6739C142.676 36.7065 142.761 36.7911 142.801 36.9213C142.873 37.1752 142.781 37.429 142.531 37.6829C141.711 38.6723 140.713 39.7789 139.564 40.9376C138.415 42.0962 137.187 43.1768 135.907 44.1467C134.614 45.1231 133.248 45.9498 131.843 46.6007C130.419 47.2582 128.974 47.5966 127.55 47.5966L127.556 47.5901ZM155.997 0.905029C155.675 0.905029 154.913 1.10682 153.108 2.05719C151.637 2.8318 150.009 3.96443 148.263 5.42252C146.976 6.47053 145.906 7.53155 145.085 8.57305C144.251 9.62757 143.437 10.7667 142.65 11.9514C142.006 12.9083 141.291 14.0344 140.522 15.3037L138.113 19.2875C137.273 20.6739 136.426 22.093 135.566 23.5446C134.706 24.9962 133.878 26.3957 133.084 27.7366C132.618 28.5242 131.883 29.6959 130.911 31.2061C129.946 32.7097 128.961 34.3371 127.983 36.0425C127.011 37.748 126.151 39.3818 125.442 40.905C124.74 42.4152 124.379 43.5804 124.379 44.368C124.379 45.1556 124.622 45.7805 125.114 46.3143C125.6 46.8351 126.42 47.1019 127.55 47.1019C128.902 47.1019 130.281 46.783 131.64 46.1516C132.565 45.722 133.471 45.2207 134.351 44.6414C133.832 44.9669 133.301 45.2728 132.769 45.5462C131.482 46.2102 130.222 46.5421 129.02 46.5421C127.983 46.5421 126.749 46.1125 126.749 44.0816C126.749 43.1312 127.024 41.9595 127.569 40.5991C128.101 39.2647 128.744 37.8782 129.467 36.4917C130.182 35.1117 130.931 33.7773 131.673 32.534C132.414 31.2907 132.999 30.3013 133.419 29.5592L133.452 29.5006L133.511 29.4681C135.861 28.1923 138.106 26.6951 140.181 25.0222C142.256 23.3493 144.186 21.5787 145.919 19.7431C147.646 17.914 149.215 16.0458 150.58 14.1906C151.946 12.3355 153.114 10.5714 154.06 8.95059C155.005 7.32976 155.741 5.88469 156.246 4.64791C156.745 3.43066 156.994 2.50633 156.994 1.90096C156.994 1.55596 156.909 1.30861 156.725 1.14588C156.535 0.976632 156.292 0.89852 155.983 0.89852L155.997 0.905029ZM133.478 29.4681L139.196 20.3745C140.673 18.0311 141.941 16.0523 142.971 14.4835C144.015 12.8953 144.888 11.5999 145.558 10.6365C146.234 9.66662 146.759 8.92456 147.134 8.41683C148.118 7.16052 148.919 6.14506 149.55 5.35743C150.193 4.55678 150.725 3.9449 151.178 3.50226C151.644 3.0401 152.018 2.74067 152.327 2.59095C152.642 2.43473 152.937 2.35662 153.206 2.35662C153.64 2.35662 154.362 2.53237 154.362 3.71056C154.362 5.25979 153.837 7.18656 152.799 9.42578C151.775 11.6455 150.357 13.9693 148.584 16.3257C146.812 18.6886 144.672 21.0189 142.229 23.2517C139.781 25.4909 137.122 27.4307 134.325 28.9994L133.485 29.4746L133.478 29.4681ZM153.2 2.84482C153.009 2.84482 152.786 2.9034 152.543 3.02708C152.287 3.15727 151.946 3.43066 151.526 3.84726C151.092 4.27688 150.561 4.88225 149.937 5.66337C149.307 6.451 148.506 7.46646 147.527 8.70975C147.16 9.21097 146.635 9.94653 145.965 10.9164C145.295 11.8798 144.422 13.1687 143.385 14.7569C142.354 16.3192 141.087 18.3045 139.616 20.6414L134.935 28.0816C137.391 26.6235 139.721 24.879 141.895 22.8936C144.311 20.6805 146.431 18.3696 148.184 16.0328C149.937 13.7024 151.335 11.4111 152.346 9.21748C153.351 7.04335 153.863 5.18819 153.863 3.71056C153.863 2.94897 153.528 2.84482 153.2 2.84482Z" fill="white"/>
<path d="M149.773 34.3955C149.635 34.6298 149.517 34.6493 149.425 34.4671C149.143 33.8682 148.565 33.5688 147.679 33.5688C147.022 33.5688 146.372 33.7575 145.722 34.1221C145.072 34.4931 144.744 35.0464 144.744 35.782C144.744 36.153 144.862 36.524 145.092 36.8885C145.322 37.2596 145.65 37.7413 146.07 38.3401C146.444 38.8934 146.792 39.4467 147.12 40C147.449 40.5533 147.613 41.1326 147.613 41.7315C147.613 42.9357 147.331 43.9121 146.773 44.6737C146.214 45.4353 145.551 46.0472 144.783 46.5094C144.015 46.9715 143.234 47.284 142.446 47.4467C141.652 47.6095 141.021 47.6876 140.562 47.6876C137.719 47.6876 136.163 46.7437 135.881 44.8495C136.117 44.7128 136.38 44.537 136.682 44.3287C136.984 44.1204 137.207 43.9252 137.345 43.7364C137.437 43.7364 137.509 43.8275 137.555 44.0163C137.785 44.8495 138.231 45.5655 138.881 46.1644C139.531 46.7632 140.299 47.0627 141.186 47.0627C141.56 47.0627 142 47.0301 142.512 46.9585C143.024 46.8869 143.503 46.7307 143.943 46.4703C144.383 46.2165 144.77 45.8584 145.098 45.3963C145.427 44.9341 145.584 44.3092 145.584 43.5281C145.584 42.9292 145.466 42.3759 145.236 41.8682C145 41.3605 144.75 40.8983 144.468 40.4817C144.186 40.0195 143.91 39.5574 143.628 39.0952C143.345 38.6331 143.208 38.1253 143.208 37.572C143.208 37.0187 143.405 36.4199 143.805 35.7689C144.199 35.1245 144.698 34.5322 145.308 34.0049C145.912 33.4711 146.576 33.022 147.298 32.651C148.02 32.2799 148.729 32.0977 149.431 32.0977C150.173 32.0977 150.547 32.332 150.547 32.7876C150.41 33.022 150.272 33.2824 150.127 33.5818C149.989 33.8812 149.871 34.1481 149.779 34.3759L149.773 34.3955Z" fill="white"/>
<path d="M140.555 47.9412C137.588 47.9412 135.927 46.9128 135.631 44.8949L135.605 44.7321L135.743 44.6475C135.973 44.5108 136.235 44.3416 136.531 44.1398C136.813 43.9445 137.017 43.7687 137.135 43.606L137.207 43.5084H137.332C137.483 43.5084 137.68 43.5865 137.778 43.9705C137.995 44.7516 138.422 45.4351 139.032 46.0014C139.643 46.5612 140.339 46.8346 141.172 46.8346C141.533 46.8346 141.967 46.8021 142.466 46.7305C142.945 46.6654 143.398 46.5157 143.805 46.2748C144.212 46.0405 144.573 45.702 144.882 45.2724C145.177 44.8558 145.328 44.27 145.328 43.5409C145.328 42.9811 145.217 42.4538 145 41.9787C144.77 41.4774 144.521 41.0283 144.251 40.6247L143.405 39.2317C143.103 38.737 142.952 38.1772 142.952 37.5848C142.952 36.9925 143.162 36.3416 143.582 35.6581C143.989 34.9941 144.508 34.3822 145.131 33.8355C145.748 33.2952 146.438 32.8265 147.173 32.449C147.928 32.0649 148.683 31.8696 149.418 31.8696C150.607 31.8696 150.784 32.4555 150.784 32.807V32.8721L150.751 32.9307C150.62 33.152 150.482 33.4123 150.344 33.7053C150.206 34.0047 150.088 34.2651 150.003 34.4929L149.983 34.5254C149.937 34.6036 149.779 34.8249 149.55 34.8379C149.451 34.8379 149.307 34.7858 149.202 34.5775C148.959 34.0633 148.46 33.8094 147.678 33.8094C147.074 33.8094 146.457 33.9852 145.847 34.3302C145.276 34.6556 144.993 35.1308 144.993 35.7818C144.993 36.1072 145.098 36.4327 145.302 36.7582C145.532 37.1227 145.853 37.6044 146.274 38.2032C146.648 38.763 147.002 39.3294 147.331 39.8826C147.678 40.475 147.856 41.0999 147.856 41.7378C147.856 42.9876 147.56 44.0226 146.969 44.8233C146.392 45.6109 145.696 46.2488 144.908 46.724C144.12 47.1992 143.306 47.5246 142.492 47.6874C141.671 47.8566 141.041 47.9347 140.555 47.9347V47.9412ZM136.143 44.9795C136.465 46.6459 137.909 47.453 140.555 47.453C140.962 47.453 141.507 47.3879 142.19 47.2577C141.816 47.2968 141.481 47.3228 141.186 47.3228C140.24 47.3228 139.406 46.9974 138.71 46.3595C138.041 45.7411 137.575 44.999 137.325 44.1398C137.187 44.27 137.023 44.4067 136.82 44.5433C136.57 44.7126 136.347 44.8623 136.143 44.986V44.9795ZM144.599 35.0918C144.383 35.3521 144.186 35.6255 144.015 35.9119C143.647 36.5173 143.457 37.0771 143.457 37.5848C143.457 38.0926 143.588 38.5612 143.838 38.9844L144.678 40.3709C144.954 40.7809 145.217 41.2561 145.459 41.7834C145.709 42.3237 145.834 42.916 145.834 43.5474C145.834 44.3806 145.656 45.0576 145.302 45.5588C145.066 45.8908 144.803 46.1707 144.508 46.405C144.56 46.379 144.606 46.3464 144.652 46.3204C145.387 45.8778 146.031 45.2854 146.569 44.5499C147.094 43.8338 147.363 42.89 147.363 41.7508C147.363 41.1975 147.212 40.6573 146.91 40.143C146.589 39.5962 146.241 39.0429 145.873 38.4896C145.446 37.8778 145.125 37.4026 144.888 37.0315C144.632 36.628 144.501 36.2114 144.501 35.7948C144.501 35.5474 144.534 35.3131 144.599 35.1048V35.0918ZM147.685 33.3212C148.604 33.3212 149.241 33.6272 149.582 34.226C149.668 34.0112 149.779 33.7704 149.904 33.497C150.035 33.2171 150.167 32.9632 150.298 32.7419C150.285 32.5987 150.18 32.3578 149.431 32.3578C148.775 32.3578 148.099 32.5336 147.416 32.8851C146.996 33.0999 146.589 33.3473 146.208 33.6206C146.7 33.4254 147.199 33.3212 147.692 33.3212H147.685Z" fill="white"/>
<path d="M63.3814 63.9219C63.2238 63.9219 63.0925 63.7982 63.0925 63.6485V55.0756C63.0925 54.9194 63.2238 54.8022 63.3814 54.8022H65.0096C65.6201 54.8022 66.1256 55.0366 66.4473 55.4011C66.7493 55.7331 66.9266 56.1627 66.9266 56.8592V58.1546C66.9266 58.8511 66.7362 59.2807 66.4342 59.6127C66.1125 59.9772 65.6201 60.2115 65.003 60.2115H64.2874C64.143 60.2115 64.0445 60.3222 64.0445 60.4654V63.655C64.0445 63.8112 63.9197 63.9284 63.7687 63.9284H63.3814V63.9219ZM65.9681 56.9634C65.9681 56.5077 65.9156 56.1757 65.712 55.9674C65.5348 55.7787 65.2656 55.694 65.0096 55.694H64.3268C64.1364 55.694 64.0511 55.7721 64.0511 55.9349V59.0659C64.0511 59.2286 64.1298 59.3067 64.294 59.3067H65.0161C65.2722 59.3067 65.5217 59.183 65.6989 58.9943C65.9024 58.786 65.9681 58.454 65.9681 57.9983V56.9568V56.9634Z" fill="#DBE9C5"/>
<path d="M72.0475 63.5899C72.0475 63.7461 72.0016 63.8242 71.9359 63.8763C71.8703 63.9284 71.7915 63.9544 71.6996 63.9544C71.588 63.9544 71.4895 63.9088 71.3976 63.8437L71.3516 63.8112C71.2597 63.7461 71.2072 63.7201 71.1087 63.7201C71.0168 63.7201 70.8723 63.8112 70.6754 63.8763C70.485 63.9414 70.2946 64 70.0254 64C68.9225 64 68.2594 63.0561 68.2594 61.956V61.7803C68.2594 61.1359 68.5286 60.5305 69.021 60.179C69.2967 59.9707 69.7497 59.847 70.229 59.847H70.8658C71.0102 59.847 71.1087 59.7363 71.1087 59.5931V58.9617C71.1087 58.5061 71.043 58.1741 70.8395 57.9658C70.6623 57.777 70.4259 57.6924 70.1699 57.6924C69.9138 57.6924 69.6775 57.7835 69.5002 57.9658C69.323 58.1546 69.2311 58.4605 69.2311 58.8511V58.8641C69.2311 59.0203 69.1063 59.1375 68.9553 59.1375H68.5745C68.417 59.1375 68.2988 59.0138 68.2988 58.8641V58.786C68.2988 58.1546 68.4892 57.7445 68.7649 57.4255C69.0866 57.061 69.5659 56.8267 70.1699 56.8267C70.7739 56.8267 71.2531 57.061 71.5748 57.4255C71.8637 57.7575 72.041 58.1871 72.041 58.8836V63.5964L72.0475 63.5899ZM69.2376 62.0537C69.2376 62.3661 69.3164 62.607 69.4608 62.8088C69.6053 63.0105 69.8285 63.1407 70.1764 63.1407C70.6229 63.1407 71.1153 62.8673 71.1153 62.2229V60.9406C71.1153 60.7974 71.0168 60.6867 70.8723 60.6867H70.1567C69.8022 60.6867 69.579 60.8299 69.4346 61.0317C69.3033 61.2205 69.2442 61.4418 69.2442 61.7477V62.0602L69.2376 62.0537Z" fill="#DBE9C5"/>
<path d="M74.6605 57.9331C74.4963 58.0958 74.4241 58.3562 74.4241 58.7272V58.7468C74.4241 58.9485 74.4832 59.2024 74.5686 59.3456C74.6605 59.4888 74.7786 59.5865 75.0806 59.7232L75.8619 60.0682C76.4856 60.3415 76.7088 60.5433 76.8992 60.7972C77.0896 61.0641 77.1881 61.37 77.1881 61.8257V62.1121C77.1881 63.2968 76.374 63.9933 75.3236 63.9933C74.7196 63.9933 74.2666 63.759 73.9383 63.3944C73.6494 63.0625 73.4722 62.6328 73.4722 61.9363V61.7736C73.4722 61.6174 73.5969 61.5002 73.7479 61.5002H74.1287C74.2863 61.5002 74.4044 61.6239 74.4044 61.7736V61.7866C74.4044 62.2423 74.4701 62.6524 74.6605 62.8607C74.8377 63.0494 75.0609 63.1341 75.317 63.1341C75.573 63.1341 75.8225 63.0559 75.9998 62.8802C76.1639 62.7175 76.2558 62.4571 76.2558 62.0861V62.0405C76.2558 61.7671 76.2033 61.5002 76.0982 61.357C76.0063 61.2268 75.8553 61.0706 75.5533 60.9339L74.7721 60.5889C74.1484 60.3155 73.958 60.1267 73.7676 59.8664C73.5772 59.5995 73.4919 59.248 73.4919 58.7923V58.6947C73.4919 57.51 74.26 56.8135 75.3104 56.8135C75.9144 56.8135 76.3937 57.0478 76.7154 57.4123C76.9911 57.7313 77.1815 58.1414 77.1815 58.7728V58.8509C77.1815 59.0071 77.0568 59.1243 76.9058 59.1243H76.525C76.3674 59.1243 76.2492 59.0006 76.2492 58.8509C76.2492 58.4669 76.1573 58.1414 75.9801 57.9526C75.8028 57.7638 75.5665 57.6792 75.3104 57.6792C75.0544 57.6792 74.8312 57.7573 74.6539 57.9331H74.6605Z" fill="#DBE9C5"/>
<path d="M79.7813 57.9331C79.6172 58.0958 79.545 58.3562 79.545 58.7272V58.7468C79.545 58.9485 79.6041 59.2024 79.6894 59.3456C79.7813 59.4888 79.8995 59.5865 80.2015 59.7232L80.9827 60.0682C81.6064 60.3415 81.8297 60.5433 82.02 60.7972C82.2104 61.0641 82.3089 61.37 82.3089 61.8257V62.1121C82.3089 63.2968 81.4948 63.9933 80.4444 63.9933C79.8404 63.9933 79.3874 63.759 79.0592 63.3944C78.7703 63.0625 78.593 62.6328 78.593 61.9363V61.7736C78.593 61.6174 78.7178 61.5002 78.8688 61.5002H79.2495C79.4071 61.5002 79.5253 61.6239 79.5253 61.7736V61.7866C79.5253 62.2423 79.5909 62.6524 79.7813 62.8607C79.9586 63.0494 80.1818 63.1341 80.4378 63.1341C80.6939 63.1341 80.9434 63.0559 81.1206 62.8802C81.2848 62.7175 81.3767 62.4571 81.3767 62.0861V62.0405C81.3767 61.7671 81.3241 61.5002 81.2191 61.357C81.1272 61.2268 80.9762 61.0706 80.6742 60.9339L79.8929 60.5889C79.2692 60.3155 79.0788 60.1267 78.8885 59.8664C78.6981 59.5995 78.6127 59.248 78.6127 58.7923V58.6947C78.6127 57.51 79.3808 56.8135 80.4313 56.8135C81.0353 56.8135 81.5145 57.0478 81.8362 57.4123C82.112 57.7313 82.3024 58.1414 82.3024 58.7728V58.8509C82.3024 59.0071 82.1776 59.1243 82.0266 59.1243H81.6458C81.4883 59.1243 81.3701 59.0006 81.3701 58.8509C81.3701 58.4669 81.2782 58.1414 81.1009 57.9526C80.9237 57.7638 80.6873 57.6792 80.4313 57.6792C80.1752 57.6792 79.952 57.7573 79.7748 57.9331H79.7813Z" fill="#DBE9C5"/>
<path d="M83.7992 55.0693C83.7992 54.9131 83.9239 54.7959 84.0749 54.7959H84.5214C84.6789 54.7959 84.7971 54.9196 84.7971 55.0693V55.5119C84.7971 55.6682 84.6724 55.7853 84.5214 55.7853H84.0749C83.9174 55.7853 83.7992 55.6616 83.7992 55.5119V55.0693ZM83.832 57.1718C83.832 57.0156 83.9568 56.8984 84.1078 56.8984H84.4885C84.6461 56.8984 84.7643 57.0221 84.7643 57.1718V63.6421C84.7643 63.7983 84.6395 63.9155 84.4885 63.9155H84.1078C83.9502 63.9155 83.832 63.7918 83.832 63.6421V57.1718Z" fill="#DBE9C5"/>
<path d="M90.0755 61.9432C90.0755 62.6397 89.8983 63.0693 89.6094 63.4013C89.2877 63.7658 88.8084 64.0001 88.2044 64.0001C87.6005 64.0001 87.1212 63.7658 86.7995 63.4013C86.5106 63.0693 86.3334 62.6397 86.3334 61.9432V58.8773C86.3334 58.1808 86.5106 57.7511 86.7995 57.4192C87.1212 57.0546 87.6005 56.8203 88.2044 56.8203C88.8084 56.8203 89.2877 57.0546 89.6094 57.4192C89.8983 57.7511 90.0755 58.1808 90.0755 58.8773V61.9432ZM87.2656 61.8651C87.2656 62.3207 87.3313 62.6527 87.5348 62.861C87.7121 63.0498 87.9484 63.1344 88.2044 63.1344C88.4605 63.1344 88.6968 63.0433 88.8741 62.861C89.0776 62.6527 89.1433 62.3207 89.1433 61.8651V58.9554C89.1433 58.4997 89.0776 58.1677 88.8741 57.9595C88.6968 57.7707 88.4605 57.6861 88.2044 57.6861C87.9484 57.6861 87.7121 57.7772 87.5348 57.9595C87.3313 58.1677 87.2656 58.4997 87.2656 58.9554V61.8651Z" fill="#DBE9C5"/>
<path d="M94.3363 58.9552C94.3363 58.4996 94.2706 58.1676 94.0671 57.9593C93.8898 57.7705 93.6535 57.6859 93.3975 57.6859C93.1414 57.6859 92.9051 57.777 92.7278 57.9593C92.5243 58.1676 92.4586 58.4996 92.4586 58.9552V63.6485C92.4586 63.8047 92.3339 63.9219 92.1829 63.9219H91.8021C91.6445 63.9219 91.5264 63.7982 91.5264 63.6485V57.2302C91.5264 57.074 91.5723 56.9959 91.638 56.9438C91.7036 56.8918 91.7824 56.8657 91.8743 56.8657C91.9859 56.8657 92.0844 56.9178 92.1763 56.9894L92.2223 57.0219C92.3142 57.087 92.3667 57.1131 92.4652 57.1131C92.5571 57.1131 92.7015 57.0219 92.9248 56.9503C93.102 56.8983 93.3515 56.8267 93.6141 56.8267C94.0146 56.8267 94.461 56.9894 94.7827 57.3344C95.0716 57.6468 95.2751 58.109 95.2751 58.8706V63.6485C95.2751 63.8047 95.1504 63.9219 94.9994 63.9219H94.6186C94.461 63.9219 94.3428 63.7982 94.3428 63.6485V58.9552H94.3363Z" fill="#DBE9C5"/>
<path d="M99.6147 56.8984C99.7592 56.8984 99.8576 56.7878 99.8576 56.6446V56.5014C99.8576 56.2149 99.8773 55.9806 99.9233 55.7918C99.9889 55.538 100.101 55.3492 100.258 55.193C100.448 55.0172 100.737 54.7959 101.486 54.7959H101.834C101.991 54.7959 102.109 54.9196 102.109 55.0693V55.3882C102.109 55.5445 101.985 55.6616 101.834 55.6616H101.578C101.197 55.6616 101.039 55.7267 100.941 55.8374C100.842 55.9481 100.796 56.1498 100.796 56.3777V56.6315C100.796 56.7747 100.895 56.8854 101.039 56.8854H101.834C101.991 56.8854 102.109 57.0091 102.109 57.1588V57.4778C102.109 57.634 101.985 57.7511 101.834 57.7511H101.039C100.895 57.7511 100.796 57.8748 100.796 58.018V63.6291C100.796 63.7853 100.672 63.9025 100.521 63.9025H100.14C99.9824 63.9025 99.8642 63.7788 99.8642 63.6291V58.018C99.8642 57.8748 99.7657 57.7511 99.6213 57.7511H99.1617C99.0042 57.7511 98.886 57.6275 98.886 57.4778V57.1588C98.886 57.0026 99.0107 56.8854 99.1617 56.8854H99.6213L99.6147 56.8984Z" fill="#DBE9C5"/>
<path d="M106.836 61.9432C106.836 62.6397 106.659 63.0693 106.37 63.4013C106.049 63.7658 105.569 64.0001 104.965 64.0001C104.361 64.0001 103.882 63.7658 103.56 63.4013C103.271 63.0693 103.094 62.6397 103.094 61.9432V58.8773C103.094 58.1808 103.271 57.7511 103.56 57.4192C103.882 57.0546 104.361 56.8203 104.965 56.8203C105.569 56.8203 106.049 57.0546 106.37 57.4192C106.659 57.7511 106.836 58.1808 106.836 58.8773V61.9432ZM104.026 61.8651C104.026 62.3207 104.092 62.6527 104.296 62.861C104.473 63.0498 104.709 63.1344 104.965 63.1344C105.221 63.1344 105.458 63.0433 105.635 62.861C105.838 62.6527 105.904 62.3207 105.904 61.8651V58.9554C105.904 58.4997 105.838 58.1677 105.635 57.9595C105.458 57.7707 105.221 57.6861 104.965 57.6861C104.709 57.6861 104.473 57.7772 104.296 57.9595C104.092 58.1677 104.026 58.4997 104.026 58.9554V61.8651Z" fill="#DBE9C5"/>
<path d="M109.226 63.6418C109.226 63.798 109.101 63.9152 108.95 63.9152H108.57C108.412 63.9152 108.294 63.7915 108.294 63.6418V57.2236C108.294 57.0674 108.34 56.9892 108.406 56.9372C108.471 56.8851 108.55 56.859 108.642 56.859C108.754 56.859 108.852 56.9111 108.944 56.9827L108.99 57.0153C109.082 57.0804 109.134 57.1064 109.233 57.1064C109.325 57.1064 109.469 57.0413 109.692 56.9632C109.896 56.8981 110.126 56.8525 110.362 56.8525H110.565C110.73 56.8525 110.854 56.9502 110.854 57.1324V57.497C110.854 57.6532 110.73 57.7704 110.579 57.7704H110.257C109.876 57.7704 109.646 57.8485 109.476 58.0242C109.298 58.226 109.239 58.545 109.239 58.9746V63.6418H109.226Z" fill="#DBE9C5"/>
<path d="M115.378 63.7331C115.279 63.7331 115.22 63.7526 115.135 63.8242L115.089 63.8568C114.997 63.9219 114.899 63.9804 114.787 63.9804C114.695 63.9804 114.623 63.9609 114.551 63.9023C114.485 63.8502 114.439 63.7721 114.439 63.6159V55.0756C114.439 54.9194 114.564 54.8022 114.715 54.8022H115.095C115.253 54.8022 115.371 54.9259 115.371 55.0756V56.4035C115.371 56.5663 115.358 56.5793 115.358 56.716C115.358 56.8592 115.457 56.9699 115.601 56.9699C115.693 56.9699 115.759 56.9503 115.857 56.9178C116.047 56.8657 116.238 56.8267 116.428 56.8267C116.934 56.8267 117.387 57.035 117.715 57.4125C118.004 57.7445 118.181 58.1871 118.181 58.8836V61.9495C118.181 62.646 118.017 63.0887 117.722 63.4206C117.374 63.8177 116.921 64.0065 116.494 64.0065C116.218 64.0065 115.982 63.9414 115.824 63.8958C115.601 63.8177 115.457 63.7396 115.365 63.7396L115.378 63.7331ZM115.378 61.8649C115.378 62.3206 115.443 62.6525 115.647 62.8608C115.824 63.0496 116.061 63.1342 116.317 63.1342C116.573 63.1342 116.809 63.0431 116.986 62.8608C117.19 62.6525 117.255 62.3206 117.255 61.8649V58.9552C117.255 58.4996 117.19 58.1676 116.986 57.9593C116.809 57.7705 116.573 57.6859 116.317 57.6859C116.061 57.6859 115.824 57.777 115.647 57.9593C115.443 58.1676 115.378 58.4996 115.378 58.9552V61.8649Z" fill="#DBE9C5"/>
<path d="M120.63 63.6421C120.63 63.7983 120.505 63.9155 120.354 63.9155H119.973C119.816 63.9155 119.698 63.7918 119.698 63.6421V55.0693C119.698 54.9131 119.822 54.7959 119.973 54.7959H120.354C120.512 54.7959 120.63 54.9196 120.63 55.0693V63.6421Z" fill="#DBE9C5"/>
<path d="M125.935 61.9432C125.935 62.6397 125.757 63.0693 125.468 63.4013C125.147 63.7658 124.667 64.0001 124.063 64.0001C123.459 64.0001 122.98 63.7658 122.659 63.4013C122.37 63.0693 122.192 62.6397 122.192 61.9432V58.8773C122.192 58.1808 122.37 57.7511 122.659 57.4192C122.98 57.0546 123.459 56.8203 124.063 56.8203C124.667 56.8203 125.147 57.0546 125.468 57.4192C125.757 57.7511 125.935 58.1808 125.935 58.8773V61.9432ZM123.125 61.8651C123.125 62.3207 123.19 62.6527 123.394 62.861C123.571 63.0498 123.807 63.1344 124.063 63.1344C124.32 63.1344 124.556 63.0433 124.733 62.861C124.937 62.6527 125.002 62.3207 125.002 61.8651V58.9554C125.002 58.4997 124.937 58.1677 124.733 57.9595C124.556 57.7707 124.32 57.6861 124.063 57.6861C123.807 57.6861 123.571 57.7772 123.394 57.9595C123.19 58.1677 123.125 58.4997 123.125 58.9554V61.8651Z" fill="#DBE9C5"/>
<path d="M133.754 63.6421C133.754 63.7983 133.544 63.9155 133.386 63.9155H133.097C132.94 63.9155 132.821 63.7918 132.821 63.6421V58.8708C132.821 58.4477 132.769 58.1417 132.579 57.9399C132.414 57.7642 132.185 57.6861 131.942 57.6861C131.699 57.6861 131.476 57.7642 131.305 57.9399C131.115 58.1417 131.036 58.4477 131.036 58.8708V63.6421C131.036 63.7983 130.911 63.9155 130.753 63.9155H130.373C130.215 63.9155 130.09 63.7918 130.09 63.6421V58.8708C130.09 58.4477 130.038 58.1417 129.847 57.9399C129.677 57.7642 129.454 57.6861 129.211 57.6861C128.968 57.6861 128.744 57.7642 128.574 57.9399C128.383 58.1417 128.318 58.4477 128.318 58.8708V63.6421C128.318 63.7983 128.193 63.9155 128.042 63.9155H127.661C127.504 63.9155 127.385 63.7918 127.385 63.6421V57.2239C127.385 57.0677 127.431 56.9896 127.497 56.9375C127.563 56.8854 127.642 56.8594 127.733 56.8594C127.845 56.8594 127.944 56.9114 128.035 56.983L128.081 57.0156C128.173 57.0807 128.226 57.1067 128.324 57.1067C128.416 57.1067 128.534 57.0156 128.758 56.944C128.935 56.8919 129.145 56.8203 129.368 56.8203C129.69 56.8203 130.058 56.918 130.438 57.2629C130.484 57.3085 130.53 57.328 130.596 57.328C130.648 57.328 130.707 57.3085 130.76 57.2629C131.16 56.918 131.561 56.8203 132.034 56.8203C132.421 56.8203 132.927 56.9961 133.242 57.3411C133.531 57.6535 133.754 58.0961 133.754 58.8577V63.6486V63.6421Z" fill="#DBE9C5"/>
<path d="M136.367 57.9331C136.203 58.0958 136.13 58.3562 136.13 58.7272V58.7468C136.13 58.9485 136.189 59.2024 136.275 59.3456C136.367 59.4888 136.485 59.5865 136.787 59.7232L137.568 60.0682C138.192 60.3415 138.415 60.5433 138.605 60.7972C138.796 61.0641 138.894 61.37 138.894 61.8257V62.1121C138.894 63.2968 138.08 63.9933 137.03 63.9933C136.426 63.9933 135.973 63.759 135.644 63.3944C135.356 63.0625 135.178 62.6328 135.178 61.9363V61.7736C135.178 61.6174 135.303 61.5002 135.454 61.5002H135.835C135.992 61.5002 136.111 61.6239 136.111 61.7736V61.7866C136.111 62.2423 136.176 62.6524 136.367 62.8607C136.544 63.0494 136.767 63.1341 137.023 63.1341C137.279 63.1341 137.529 63.0559 137.706 62.8802C137.87 62.7175 137.962 62.4571 137.962 62.0861V62.0405C137.962 61.7671 137.909 61.5002 137.804 61.357C137.713 61.2268 137.562 61.0706 137.26 60.9339L136.478 60.5889C135.855 60.3155 135.664 60.1267 135.474 59.8664C135.283 59.5995 135.198 59.248 135.198 58.7923V58.6947C135.198 57.51 135.966 56.8135 137.017 56.8135C137.621 56.8135 138.1 57.0478 138.422 57.4123C138.697 57.7313 138.888 58.1414 138.888 58.7728V58.8509C138.888 59.0071 138.763 59.1243 138.612 59.1243H138.231C138.074 59.1243 137.955 59.0006 137.955 58.8509C137.955 58.4669 137.864 58.1414 137.686 57.9526C137.509 57.7638 137.273 57.6792 137.017 57.6792C136.761 57.6792 136.537 57.7573 136.36 57.9331H136.367Z" fill="#DBE9C5"/>
<path d="M140.043 57.7705C139.886 57.7705 139.767 57.6468 139.767 57.4971V57.1781C139.767 57.0219 139.892 56.9047 140.043 56.9047H140.457C140.601 56.9047 140.7 56.7811 140.7 56.6379V55.8632C140.7 55.707 140.824 55.5898 140.975 55.5898H141.356C141.514 55.5898 141.632 55.7135 141.632 55.8632V56.6379C141.632 56.7811 141.73 56.9047 141.875 56.9047H142.643C142.801 56.9047 142.919 57.0284 142.919 57.1781V57.4971C142.919 57.6533 142.794 57.7705 142.643 57.7705H141.875C141.73 57.7705 141.632 57.8811 141.632 58.0243V62.4833C141.632 62.6915 141.684 62.8348 141.776 62.9129C141.842 62.978 141.98 63.0431 142.131 63.0431H142.643C142.801 63.0431 142.919 63.1667 142.919 63.3164V63.6354C142.919 63.7916 142.794 63.9088 142.643 63.9088H142.262C141.658 63.9088 141.271 63.7851 141.015 63.5117C140.805 63.2774 140.693 62.9584 140.693 62.4247V58.0113C140.693 57.8681 140.595 57.7575 140.45 57.7575H140.037L140.043 57.7705Z" fill="#DBE9C5"/>
<path d="M144.993 60.6802C144.849 60.6802 144.75 60.7778 144.75 60.921V61.8584C144.75 62.314 144.816 62.646 145.02 62.8543C145.197 63.0431 145.433 63.1277 145.689 63.1277C145.945 63.1277 146.182 63.0366 146.359 62.8543C146.562 62.646 146.628 62.314 146.628 61.8584V61.7673C146.628 61.611 146.753 61.4939 146.904 61.4939H147.285C147.442 61.4939 147.56 61.6175 147.56 61.7673V61.93C147.56 62.6265 147.383 63.0561 147.094 63.3881C146.772 63.7526 146.293 63.987 145.689 63.987C145.085 63.987 144.606 63.7526 144.284 63.3881C143.995 63.0561 143.818 62.6265 143.818 61.93V58.8641C143.818 58.1676 143.995 57.738 144.284 57.406C144.606 57.0415 145.085 56.8071 145.689 56.8071C146.293 56.8071 146.772 57.0415 147.094 57.406C147.383 57.738 147.56 58.1676 147.56 58.8641V60.3808C147.56 60.537 147.429 60.6672 147.271 60.6672H144.993V60.6802ZM144.75 59.5931C144.75 59.7559 144.829 59.834 144.993 59.834H146.365C146.51 59.834 146.621 59.7233 146.621 59.5801V58.9487C146.621 58.4931 146.556 58.1611 146.352 57.9528C146.175 57.764 145.939 57.6794 145.683 57.6794C145.427 57.6794 145.19 57.7705 145.013 57.9528C144.809 58.1611 144.744 58.4931 144.744 58.9487V59.5931H144.75Z" fill="#DBE9C5"/>
<path d="M149.937 63.6418C149.937 63.798 149.812 63.9152 149.661 63.9152H149.28C149.123 63.9152 149.005 63.7915 149.005 63.6418V57.2236C149.005 57.0674 149.051 56.9892 149.116 56.9372C149.182 56.8851 149.261 56.859 149.353 56.859C149.464 56.859 149.563 56.9111 149.655 56.9827L149.701 57.0153C149.792 57.0804 149.845 57.1064 149.943 57.1064C150.035 57.1064 150.18 57.0413 150.403 56.9632C150.607 56.8981 150.836 56.8525 151.073 56.8525H151.276C151.44 56.8525 151.565 56.9502 151.565 57.1324V57.497C151.565 57.6532 151.44 57.7704 151.289 57.7704H150.968C150.587 57.7704 150.357 57.8485 150.186 58.0242C150.009 58.226 149.95 58.545 149.95 58.9746V63.6418H149.937Z" fill="#DBE9C5"/>
</g>
<defs>
<clipPath id="clip0_143_2892">
<rect width="157" height="65" fill="white" transform="translate(0.5)"/>
</clipPath>
</defs>
</svg>
