<svg width="34" height="33" viewBox="0 0 34 33" fill="none" xmlns="http://www.w3.org/2000/svg">
<path d="M13.6517 3.2204C14.4575 2.50481 15.5019 2.11665 16.5794 2.13229C17.6299 2.14653 18.594 2.53906 19.3394 3.17871C20.0324 3.7716 20.5206 4.56804 20.7346 5.45459C20.8119 5.78001 20.8526 6.11763 20.8505 6.4644C20.8505 8.37622 19.6201 9.99314 17.9116 10.5728C17.7959 10.6109 17.6709 10.6096 17.556 10.5691C17.4411 10.5286 17.3429 10.4511 17.2767 10.3489C17.2104 10.2467 17.1799 10.1254 17.1899 10.004C17.2 9.88257 17.2499 9.7679 17.332 9.67789C17.8404 9.09824 18.1455 8.34572 18.1557 7.51184C18.1568 7.0796 18.0725 6.65139 17.9078 6.25178C17.7431 5.85216 17.5011 5.48898 17.1957 5.18307H14.8273C13.0993 5.19091 11.4203 5.75819 10.0416 6.79999C7.6488 8.603 6.33798 11.6162 6.63492 14.7198L6.88712 17.0008C6.91143 17.2218 6.86265 17.4447 6.74822 17.6353C6.6338 17.826 6.46005 17.9739 6.25357 18.0564C5.78844 18.242 5.39703 18.5751 5.13936 19.0046C4.88169 19.434 4.77197 19.9362 4.82702 20.4339C4.88208 20.9317 5.09887 21.3977 5.44415 21.7605C5.78944 22.1233 6.24418 22.3628 6.73865 22.4424C6.9543 22.4766 7.15321 22.5793 7.30595 22.7354C7.45869 22.8914 7.55715 23.0924 7.58676 23.3088C7.88879 25.5216 9.06944 27.0592 10.7148 28.0711C12.3897 29.1002 14.5629 29.5893 16.7625 29.5893C18.9621 29.5893 21.1353 29.1002 22.8102 28.0711C24.4555 27.0592 25.6362 25.5216 25.9382 23.3088C25.9678 23.0924 26.0663 22.8914 26.219 22.7354C26.3718 22.5793 26.5707 22.4766 26.7863 22.4424C27.2813 22.3635 27.7368 22.1244 28.0826 21.7616C28.4285 21.3988 28.6457 20.9325 28.7008 20.4343C28.7559 19.9361 28.6458 19.4336 28.3876 19.004C28.1294 18.5744 27.7372 18.2414 27.2714 18.0564C27.0649 17.9739 26.8912 17.826 26.7768 17.6353C26.6623 17.4447 26.6136 17.2218 26.6379 17.0008L26.8901 14.7198C27.187 11.6162 25.8762 8.603 23.4834 6.79999C22.9723 6.41714 22.4184 6.09498 21.8329 5.84001C21.7317 4.96226 21.4121 4.12386 20.9034 3.40142C22.2791 3.72115 23.573 4.32413 24.7027 5.17189L24.7057 5.17392C27.6853 7.41828 29.2788 11.1331 28.9138 14.9222L28.9127 14.9364L28.7358 16.531C29.4233 16.9665 29.9738 17.5873 30.3242 18.3218C30.6745 19.0564 30.8104 19.8749 30.7161 20.6833C30.6219 21.4916 30.3014 22.257 29.7915 22.8913C29.2816 23.5256 28.603 24.003 27.8338 24.2688C27.3009 26.7928 25.8101 28.6141 23.8759 29.8029C21.7993 31.0801 19.2285 31.6232 16.7625 31.6232C14.2954 31.6232 11.7257 31.0801 9.64909 29.8029C7.7149 28.6131 6.2251 26.7928 5.69019 24.2688C4.92103 24.0029 4.24253 23.5254 3.73274 22.891C3.22294 22.2567 2.90256 21.4913 2.80843 20.683C2.71431 19.8746 2.85027 19.0561 3.20067 18.3216C3.55108 17.5871 4.1017 16.9664 4.7892 16.531L4.61225 14.9364L4.61123 14.9222C4.24514 11.1341 5.83968 7.41726 8.81928 5.17392L8.82233 5.17189C10.2337 4.1099 11.8989 3.43768 13.6517 3.2204Z" fill="#708935"/>
<path d="M13.6964 23.7217C14.6396 24.2162 15.6895 24.4721 16.7543 24.4671C17.8255 24.4701 18.8815 24.2144 19.8326 23.7217C20.1366 23.5691 20.4499 23.9159 20.2678 24.2017C19.8909 24.7889 19.3727 25.2723 18.7607 25.6075C18.1486 25.9427 17.4623 26.1191 16.7645 26.1206C16.0665 26.1204 15.3797 25.9446 14.7674 25.6092C14.1552 25.2739 13.6372 24.7898 13.2612 24.2017C13.068 23.9068 13.3934 23.559 13.6964 23.7217ZM16.7645 23.1319C17.2557 23.1319 17.694 22.8827 17.9442 22.5085C17.9966 22.4312 18.0269 22.3411 18.0319 22.2478C18.0368 22.1546 18.0162 22.0618 17.9722 21.9794C17.9283 21.897 17.8626 21.8282 17.7824 21.7804C17.7022 21.7326 17.6104 21.7076 17.517 21.7082H16.013C15.5961 21.7082 15.3449 22.176 15.5849 22.5085C15.835 22.8929 16.2744 23.1319 16.7645 23.1319ZM11.3829 17.3862C9.74569 17.3862 8.36267 18.5313 7.9864 20.0791C7.87454 20.5224 8.21013 20.9455 8.65757 20.9455H9.74569C9.65502 20.6137 9.64205 20.2655 9.7078 19.928C9.77355 19.5904 9.91624 19.2725 10.1248 18.999C10.3333 18.7255 10.6021 18.5038 10.9103 18.3511C11.2184 18.1984 11.5577 18.1188 11.9016 18.1184C13.1422 18.1184 14.1388 19.1252 14.149 20.3557C14.149 20.559 14.1185 20.7523 14.0676 20.9455H14.2507C14.6066 20.9455 14.8913 20.615 14.8202 20.254C14.5049 18.6238 13.0812 17.3862 11.3829 17.3862ZM21.5522 17.3862C23.1895 17.3862 24.5725 18.5313 24.9487 20.0791C24.9749 20.1815 24.9773 20.2885 24.9559 20.392C24.9344 20.4955 24.8896 20.5927 24.8249 20.6763C24.7601 20.7598 24.6772 20.8275 24.5823 20.8742C24.4875 20.9208 24.3833 20.9452 24.2776 20.9455H23.1895C23.2801 20.6137 23.2931 20.2655 23.2273 19.928C23.1616 19.5904 23.0189 19.2725 22.8104 18.999C22.6018 18.7255 22.333 18.5038 22.0249 18.3511C21.7167 18.1984 21.3775 18.1188 21.0336 18.1184C19.7929 18.1184 18.7862 19.1252 18.7862 20.3557C18.7862 20.559 18.8167 20.7523 18.8675 20.9455H18.6845C18.599 20.945 18.5146 20.9258 18.4374 20.8891C18.3602 20.8524 18.292 20.7992 18.2376 20.7332C18.1833 20.6672 18.1441 20.5901 18.1229 20.5072C18.1017 20.4244 18.099 20.338 18.115 20.254C18.4302 18.6238 19.8438 17.3862 21.5522 17.3862Z" fill="#708935"/>
<path d="M13.183 20.3557C13.183 19.6439 12.6135 19.0744 11.9016 19.0744C11.624 19.0744 11.3688 19.1609 11.1603 19.3083C11.1928 19.3756 11.2057 19.4507 11.1974 19.5249C11.1891 19.5992 11.1601 19.6696 11.1135 19.7281C11.067 19.7865 11.0048 19.8306 10.9343 19.8553C10.8638 19.88 10.7877 19.8843 10.7149 19.8676C10.6446 20.0401 10.6125 20.2258 10.6207 20.4118C10.629 20.5979 10.6774 20.78 10.7627 20.9456H13.0304C13.122 20.7727 13.183 20.5693 13.183 20.3557ZM20.5659 19.1619C20.7113 19.1059 20.8689 19.0744 21.0336 19.0744C21.7455 19.0744 22.315 19.6439 22.315 20.3557C22.315 20.5693 22.2641 20.7727 22.1726 20.9456H19.9049C19.8032 20.7727 19.7523 20.5693 19.7523 20.3557C19.7523 20.0903 19.8316 19.8442 19.9679 19.6398C19.9922 19.6957 20.029 19.7453 20.0755 19.7847C20.122 19.8241 20.1769 19.8522 20.2361 19.8669C20.2952 19.8816 20.357 19.8825 20.4165 19.8694C20.476 19.8564 20.5318 19.8299 20.5794 19.7918C20.627 19.7538 20.6652 19.7052 20.691 19.65C20.7168 19.5948 20.7296 19.5344 20.7283 19.4735C20.727 19.4126 20.7116 19.3528 20.6835 19.2987C20.6553 19.2447 20.6151 19.1978 20.5659 19.1619ZM10.303 15.9128C10.8328 15.7247 11.5925 15.5813 12.5962 15.6758C12.6639 15.6846 12.7326 15.6796 12.7983 15.6611C12.864 15.6427 12.9253 15.6113 12.9786 15.5687C13.0318 15.5261 13.076 15.4732 13.1084 15.4132C13.1409 15.3532 13.1609 15.2873 13.1673 15.2194C13.1737 15.1514 13.1664 15.0829 13.1458 15.0179C13.1252 14.9529 13.0917 14.8927 13.0473 14.8408C13.0029 14.789 12.9486 14.7467 12.8875 14.7163C12.8265 14.6859 12.7599 14.6681 12.6918 14.664C11.5396 14.5552 10.6315 14.7169 9.96134 14.9548C9.83431 15.0002 9.73048 15.0941 9.6727 15.2159C9.61491 15.3378 9.6079 15.4776 9.65321 15.6047C9.69852 15.7317 9.79244 15.8355 9.91431 15.8933C10.0362 15.9511 10.176 15.9581 10.303 15.9128ZM23.0858 14.9559C22.4156 14.7169 21.5075 14.5552 20.3554 14.664C20.2873 14.6681 20.2207 14.6859 20.1596 14.7163C20.0985 14.7467 20.0442 14.789 19.9998 14.8408C19.9555 14.8927 19.922 14.9529 19.9014 15.0179C19.8808 15.0829 19.8734 15.1514 19.8799 15.2194C19.8863 15.2873 19.9063 15.3532 19.9387 15.4132C19.9711 15.4732 20.0153 15.5261 20.0686 15.5687C20.1219 15.6113 20.1832 15.6427 20.2489 15.6611C20.3146 15.6796 20.3833 15.6846 20.4509 15.6758C21.4547 15.5813 22.2143 15.7247 22.7441 15.9128C22.8711 15.9581 23.011 15.9511 23.1328 15.8933C23.2547 15.8355 23.3486 15.7317 23.3939 15.6047C23.4392 15.4776 23.4322 15.3378 23.3744 15.2159C23.3167 15.0941 23.2128 15.0012 23.0858 14.9559Z" fill="#708935"/>
</svg>
